<?xml version="1.0" standalone="no"?>
<!DOCTYPE svg PUBLIC "-//W3C//DTD SVG 20010904//EN"
 "http://www.w3.org/TR/2001/REC-SVG-20010904/DTD/svg10.dtd">
<svg version="1.0" xmlns="http://www.w3.org/2000/svg"
 width="1428.000000pt" height="1600.000000pt" viewBox="0 0 1428.000000 1600.000000"
 preserveAspectRatio="xMidYMid meet">

<g transform="translate(0.000000,1600.000000) scale(0.100000,-0.100000)"
fill="#000000" stroke="none">
<path d="M7709 15383 c-44 -50 -63 -76 -53 -72 15 6 87 89 82 94 -2 3 -15 -7
-29 -22z"/>
<path d="M8070 15354 c0 -5 21 -46 38 -73 1 -2 5 -1 8 2 4 4 1 13 -6 22 -7 9
-10 18 -7 21 3 4 0 13 -8 20 -14 15 -25 18 -25 8z"/>
<path d="M8020 15340 c-14 -4 -45 -14 -70 -21 -25 -7 -73 -28 -108 -46 -35
-18 -70 -33 -78 -33 -20 0 -94 -33 -94 -43 0 -4 12 -5 28 -2 l27 6 -25 -15
c-16 -9 -27 -11 -31 -4 -4 6 -21 5 -48 -4 -23 -8 -39 -16 -37 -19 2 -2 -12 -5
-32 -6 l-37 -3 24 20 c13 11 22 23 19 26 -3 2 -19 -7 -37 -21 -17 -15 -35 -24
-40 -21 -5 4 -12 2 -15 -3 -3 -5 -35 -12 -70 -16 -41 -4 -75 -14 -90 -26 -29
-23 -30 -23 -51 -2 -9 9 -20 12 -23 7 -15 -20 -83 -65 -91 -60 -4 3 -16 -3
-26 -14 -19 -22 -45 -27 -45 -9 0 6 -7 3 -16 -5 -8 -9 -20 -16 -26 -16 -5 0
-8 -6 -5 -14 3 -8 -1 -17 -9 -20 -24 -9 -25 -8 -18 22 l6 27 -26 -27 c-15 -16
-35 -28 -46 -28 -20 0 -155 -87 -184 -119 -11 -12 -25 -21 -32 -21 -7 0 -14
-6 -17 -12 -2 -8 -8 -9 -13 -4 -5 5 -4 11 4 13 14 5 17 33 3 33 -5 0 -11 -6
-14 -12 -2 -7 -8 -10 -12 -6 -5 4 4 19 18 32 31 29 33 39 12 56 -12 10 -15 10
-15 0 0 -7 -7 -10 -16 -6 -9 4 -23 1 -31 -6 -8 -6 -26 -13 -40 -14 -15 -2 -31
-10 -35 -19 -5 -8 -19 -15 -31 -16 -12 0 -16 -3 -9 -6 17 -7 15 -23 -5 -40
-17 -13 -17 -14 2 -9 11 3 27 1 35 -4 12 -8 10 -10 -8 -10 -19 0 -22 -4 -17
-20 4 -14 2 -20 -9 -20 -10 0 -13 6 -10 15 8 19 -12 20 -23 1 -4 -7 -19 -16
-33 -19 -47 -11 -115 -28 -132 -33 -11 -3 -18 0 -18 9 0 22 -52 12 -73 -14
-23 -29 -95 -61 -119 -54 -10 4 -18 2 -18 -4 0 -14 -37 -14 -42 0 -2 5 -19 9
-38 8 -19 -1 -66 -2 -105 -2 -41 0 -60 -3 -45 -7 l25 -6 -30 -8 c-16 -4 -47
-18 -67 -32 -21 -13 -41 -24 -45 -24 -5 0 -29 -20 -55 -45 -27 -25 -54 -45
-60 -46 -34 -2 -52 -9 -60 -23 -13 -22 -27 -20 -25 4 1 11 7 20 13 20 7 0 14
7 18 15 3 8 21 23 40 32 19 9 33 20 30 25 -3 5 6 6 20 2 18 -4 26 -2 26 6 0 9
-13 11 -45 8 -37 -5 -45 -3 -45 11 -1 13 -2 13 -11 -3 -6 -10 -20 -27 -30 -37
-11 -11 -19 -23 -19 -28 0 -15 -69 -53 -85 -47 -11 4 -15 -2 -15 -24 0 -19
-13 -44 -37 -73 -69 -81 -79 -96 -127 -198 -26 -56 -48 -83 -70 -84 -6 -1 -23
-6 -38 -13 -22 -9 -28 -18 -28 -42 0 -41 -20 -39 -21 3 0 29 -1 30 -9 10 -10
-24 -41 -33 -37 -10 2 6 -1 2 -7 -10 -5 -13 -15 -23 -22 -23 -7 0 -16 -5 -20
-11 -4 -7 2 -9 17 -7 20 2 24 -2 24 -21 0 -13 -6 -26 -12 -28 -7 -3 -13 2 -13
11 0 9 -6 16 -14 16 -8 0 -17 5 -19 10 -3 6 -5 6 -3 -1 1 -6 -16 -48 -39 -93
-30 -60 -46 -82 -62 -84 -12 -2 -25 -12 -28 -23 -4 -10 -10 -19 -15 -19 -5 0
-7 -7 -4 -15 4 -8 2 -15 -4 -15 -6 0 -12 5 -14 12 -2 6 -10 8 -16 4 -9 -5 -7
-14 8 -33 23 -30 26 -53 7 -53 -8 0 -22 -9 -32 -20 -10 -11 -24 -20 -31 -20
-7 0 -20 -10 -28 -21 -9 -14 -21 -19 -31 -15 -19 7 -33 -23 -15 -34 8 -5 9 -9
1 -14 -6 -4 -11 -3 -11 3 0 6 -7 8 -17 4 -13 -5 -15 -2 -11 15 8 28 -6 36 -31
20 -21 -13 -25 -49 -4 -41 16 6 17 -9 2 -24 -9 -9 -16 -6 -30 10 l-18 22 -1
-27 c0 -30 -9 -35 -28 -16 -9 9 -13 7 -18 -5 -3 -9 -13 -17 -21 -17 -14 0 -13
-11 4 -57 5 -12 -31 -36 -40 -26 -3 3 0 12 8 20 22 21 18 39 -4 19 -20 -18
-101 -30 -101 -15 0 5 -4 9 -10 9 -5 0 -10 -13 -10 -28 0 -16 -7 -37 -15 -48
-19 -25 -21 -61 -2 -45 11 8 14 1 15 -38 0 -35 -4 -53 -16 -63 -9 -7 -13 -8
-9 -1 11 17 -3 43 -19 36 -8 -3 -14 -13 -14 -23 0 -13 -6 -17 -22 -14 l-23 5
23 -12 c12 -7 22 -20 22 -30 0 -10 5 -21 10 -24 16 -10 12 -28 -5 -21 -12 4
-15 -4 -15 -47 0 -33 3 -47 9 -38 11 18 31 5 31 -20 0 -17 -3 -18 -21 -9 -25
14 -41 3 -16 -11 9 -6 17 -19 17 -29 0 -23 -3 -24 -31 -7 -17 10 -22 9 -35 -7
-8 -11 -14 -16 -14 -11 0 5 -10 -2 -22 -15 -24 -26 -31 -70 -11 -77 7 -3 13
-15 13 -28 0 -16 -8 -25 -27 -31 -22 -5 -24 -8 -10 -11 12 -3 15 -8 9 -16 -17
-21 -61 -137 -52 -137 5 0 10 6 13 13 2 6 7 9 11 6 11 -10 -23 -39 -38 -33 -8
3 -17 1 -21 -5 -3 -6 2 -11 12 -12 15 0 14 -2 -4 -11 -27 -13 -29 -26 -7 -43
14 -10 12 -14 -20 -33 -21 -13 -34 -27 -30 -33 3 -6 -6 -23 -21 -39 l-27 -28
34 7 c19 4 33 13 34 21 0 22 15 50 25 50 20 0 7 -34 -25 -66 -18 -18 -29 -35
-23 -37 6 -2 1 -13 -11 -25 -12 -12 -22 -25 -22 -30 0 -4 -14 -20 -31 -34 -16
-15 -29 -33 -27 -40 1 -7 -10 -26 -26 -43 -22 -24 -27 -36 -22 -63 3 -23 1
-35 -9 -38 -8 -3 -14 -18 -13 -32 1 -15 -6 -44 -16 -64 -9 -21 -12 -38 -6 -38
12 0 13 -39 2 -56 -4 -7 -16 -13 -26 -15 -18 -4 -19 -5 -3 -21 20 -20 24 -46
4 -30 -18 15 -38 0 -41 -32 -2 -16 -8 -31 -15 -36 -7 -4 -12 -11 -12 -16 1 -5
-2 -9 -6 -9 -18 -2 -54 -17 -50 -22 3 -2 14 0 26 6 12 7 22 7 26 1 3 -5 12 -7
20 -3 21 8 18 -7 -6 -33 -12 -12 -27 -20 -34 -18 -7 3 -16 1 -20 -5 -3 -6 -17
-11 -30 -11 -32 0 -40 -27 -10 -32 16 -4 22 -1 18 9 -4 9 3 13 23 12 18 -1 22
-3 11 -6 -10 -2 -16 -12 -15 -21 4 -20 -61 -29 -74 -10 -6 9 -8 7 -6 -7 2 -16
-2 -19 -22 -17 -19 1 -21 0 -10 -7 8 -5 28 -7 45 -5 29 5 29 5 10 -12 -20 -16
-20 -16 3 -11 29 7 30 -19 1 -26 -18 -5 -20 -11 -15 -32 5 -18 1 -36 -9 -51
-9 -15 -11 -24 -4 -24 7 0 9 -13 5 -37 -4 -21 -7 -54 -8 -74 -1 -32 -6 -39
-42 -58 -24 -13 -31 -20 -18 -17 26 5 41 -19 23 -37 -18 -18 -13 -27 14 -27
23 0 25 -3 19 -27 -4 -16 -10 -30 -14 -33 -3 -3 -9 -12 -13 -22 -5 -13 -12
-15 -41 -8 -20 4 -39 4 -42 -1 -3 -5 3 -9 14 -9 22 0 72 -36 72 -51 0 -6 -6
-7 -12 -4 -7 4 -4 -1 6 -9 11 -9 24 -16 29 -16 11 0 3 -25 -9 -26 -5 0 -20 -6
-34 -12 -18 -8 -20 -11 -7 -11 26 -1 17 -33 -12 -43 -12 -3 -10 -9 7 -26 21
-21 22 -49 2 -37 -4 3 -11 -3 -14 -12 -4 -9 -2 -20 5 -23 7 -5 8 -10 1 -14 -6
-4 -15 2 -21 11 -9 17 -11 16 -33 -5 -17 -17 -19 -21 -5 -16 13 5 17 1 17 -16
0 -18 3 -20 14 -11 19 16 27 -8 31 -84 3 -50 0 -64 -18 -84 l-22 -24 23 12
c12 6 22 16 22 21 0 6 7 10 16 10 11 0 14 -5 10 -16 -3 -9 -6 -18 -6 -20 0 -3
-5 -2 -11 2 -6 3 -3 -5 6 -20 10 -15 13 -26 6 -26 -6 0 -11 -7 -11 -16 0 -8 5
-12 10 -9 24 15 -2 -62 -28 -81 -16 -12 -15 -13 6 -14 27 0 29 -16 2 -25 -11
-3 -20 -11 -20 -16 0 -14 9 -11 42 12 39 28 51 14 13 -17 -21 -17 -25 -24 -14
-24 9 0 19 -7 23 -15 3 -9 0 -15 -8 -15 -7 0 -21 -10 -32 -22 -19 -21 -19 -21
1 -16 11 3 29 9 40 12 18 6 17 5 -2 -10 -27 -20 -30 -36 -5 -28 13 4 12 1 -5
-14 -13 -11 -23 -27 -23 -35 0 -9 -6 -17 -12 -20 -7 -2 -10 -8 -6 -12 4 -4 15
-2 24 5 10 9 18 10 22 4 4 -6 15 -13 24 -17 11 -4 15 -13 11 -26 -3 -11 -11
-17 -18 -15 -16 7 -29 -12 -15 -21 15 -9 12 -41 -5 -55 -21 -18 -19 -27 10
-34 27 -7 31 -25 14 -58 -9 -16 -8 -19 2 -13 9 6 11 2 6 -14 -3 -12 1 -34 9
-49 8 -15 14 -33 14 -39 0 -7 7 -13 15 -13 12 0 13 -4 3 -26 -9 -19 -9 -30 -1
-43 9 -14 8 -22 -5 -35 -9 -9 -11 -16 -5 -16 6 0 16 7 23 15 22 26 29 6 25
-65 -3 -38 -1 -71 4 -74 5 -4 7 2 4 13 -3 14 4 23 27 34 34 18 33 22 14 -43
-4 -14 -1 -20 11 -20 11 0 15 -6 12 -17 -2 -10 3 -30 10 -46 20 -40 14 -94
-12 -101 -26 -8 -5 -23 28 -21 20 1 22 8 28 80 5 78 6 79 50 119 42 38 144 96
169 96 7 0 8 -6 1 -18 -5 -10 -9 -64 -8 -120 2 -97 1 -102 -19 -102 -44 0
-187 -59 -206 -85 -14 -19 -8 -35 13 -35 11 0 17 -4 14 -10 -3 -5 -15 -10 -25
-10 -11 0 -24 -9 -30 -19 -14 -27 -13 -31 9 -31 24 0 39 -64 20 -86 -10 -12
-8 -16 9 -21 25 -6 37 -53 29 -114 -4 -34 -3 -38 9 -28 11 9 14 7 15 -12 0
-22 1 -23 9 -4 7 17 9 15 9 -12 1 -21 9 -37 23 -47 17 -12 22 -27 25 -81 2
-43 0 -64 -7 -60 -5 3 -10 16 -11 28 0 12 -35 78 -77 147 -64 104 -81 126
-104 128 -22 3 -32 -5 -62 -51 -39 -58 -43 -89 -25 -167 6 -25 10 -61 10 -80
0 -49 52 -273 69 -295 6 -8 16 -62 35 -190 1 -5 3 -48 4 -95 l2 -85 34 100
c20 59 35 120 35 150 1 99 31 258 67 353 16 42 16 42 28 18 7 -13 15 -44 18
-68 3 -23 8 -55 12 -70 5 -20 1 -35 -18 -60 -24 -32 -39 -88 -53 -198 -3 -30
-10 -59 -14 -65 -4 -5 -17 -36 -29 -68 -38 -104 -25 -179 40 -221 21 -15 39
-34 39 -44 0 -25 40 -59 68 -56 19 1 22 -4 22 -32 0 -19 5 -34 10 -34 13 0 13
-11 -7 171 -25 235 -23 758 4 1042 20 209 31 255 56 240 6 -4 22 -8 35 -9 19
-2 23 1 19 15 -5 22 7 46 20 38 23 -14 56 -105 64 -176 45 -400 155 -742 312
-969 65 -94 186 -208 284 -266 196 -117 500 -172 842 -154 74 4 136 6 138 4
11 -11 -153 -29 -291 -31 -119 -2 -161 -6 -168 -17 -8 -10 -9 -9 -4 4 3 11 -2
19 -17 24 -12 4 -23 2 -25 -5 -5 -16 -32 -14 -32 3 0 9 -8 12 -25 8 -33 -6
-40 -19 -25 -47 10 -19 10 -29 -4 -56 -16 -32 -10 -48 17 -49 4 0 7 -8 7 -17
0 -15 2 -16 10 -3 8 13 10 12 10 -2 0 -12 8 -18 22 -18 l21 0 -21 -23 c-21
-22 -21 -23 -2 -35 24 -15 76 -16 85 -2 8 13 65 13 65 0 0 -5 7 -10 15 -10 8
0 15 5 15 10 0 13 37 13 42 0 2 -7 14 -6 33 4 17 8 45 17 63 21 37 8 42 -7 17
-55 -9 -17 -15 -31 -15 -32 3 -10 -33 -80 -43 -84 -8 -3 -11 -19 -9 -44 3 -28
0 -40 -9 -40 -7 0 -10 -3 -7 -6 10 -9 48 16 48 31 0 8 9 15 21 15 17 0 20 -5
15 -34 -7 -43 -26 -86 -39 -86 -5 0 -6 -7 -3 -16 7 -18 -24 -82 -59 -120 -14
-15 -25 -34 -24 -43 0 -12 3 -11 9 4 5 12 9 14 9 6 1 -8 10 -25 22 -37 18 -19
19 -25 7 -43 -7 -12 -19 -21 -27 -21 -8 0 -23 -7 -33 -17 -17 -15 -19 -15 -38
2 -19 18 -20 17 -20 -3 0 -11 4 -23 10 -27 15 -9 -1 -36 -27 -46 -27 -10 -22
-29 8 -29 19 0 19 -1 3 -32 -10 -18 -24 -38 -33 -45 -15 -11 -15 -12 0 -13 9
0 19 -9 22 -20 3 -11 9 -20 14 -19 22 6 83 -15 83 -27 0 -8 7 -14 15 -14 8 0
15 -4 15 -10 0 -5 -7 -10 -15 -10 -22 0 -18 -17 6 -23 18 -5 19 -9 9 -27 -9
-17 -8 -26 5 -46 8 -13 22 -24 30 -24 17 0 21 35 5 45 -12 7 9 55 25 55 16 0
34 -86 26 -119 -4 -14 -15 -26 -24 -26 -23 0 -35 -15 -39 -48 -4 -25 -68 -98
-68 -76 0 5 -7 9 -15 9 -9 0 -15 -7 -13 -16 5 -28 -21 -27 -28 0 -10 41 -24
19 -24 -37 0 -37 3 -48 10 -37 7 11 10 5 10 -23 0 -21 -4 -36 -9 -33 -5 4 -7
-3 -4 -14 3 -11 0 -20 -6 -20 -15 0 8 -51 31 -68 12 -9 18 -26 18 -53 0 -21 4
-39 10 -39 5 0 7 -7 3 -16 -4 -10 0 -20 10 -26 23 -12 21 -23 -5 -36 l-23 -11
23 0 c13 -1 22 -7 22 -16 0 -11 -11 -15 -40 -15 -44 0 -49 -6 -22 -26 16 -13
16 -13 0 -14 -10 0 -18 -4 -18 -10 0 -5 8 -14 18 -19 19 -12 21 -11 -68 -14
-43 -2 -55 -6 -58 -19 -3 -14 3 -18 27 -18 36 0 40 -14 10 -30 -15 -9 -24 -8
-35 1 -8 6 -16 10 -17 8 -11 -16 -27 -81 -27 -108 0 -17 -7 -48 -15 -68 -12
-29 -13 -38 -3 -44 7 -4 10 -10 8 -12 -20 -15 -69 -47 -74 -47 -3 0 -6 7 -6
15 0 18 -4 18 -47 3 -18 -7 -34 -19 -34 -28 -1 -8 -2 -24 -3 -34 -1 -11 -6
-21 -12 -23 -16 -5 -27 46 -14 62 7 9 8 20 3 29 -11 21 -81 56 -109 56 -23 0
-54 24 -54 42 0 5 -7 25 -16 44 -17 35 -34 45 -34 20 0 -8 -5 -18 -11 -22 -8
-4 -9 1 -4 16 6 19 4 22 -10 17 -11 -5 -15 -3 -13 5 5 15 -17 40 -50 57 -12 7
-20 16 -17 22 4 5 1 9 -4 9 -16 0 -13 -38 3 -47 7 -4 35 -42 61 -83 26 -41 55
-86 63 -100 9 -14 15 -33 14 -42 -2 -11 3 -18 13 -18 30 0 95 -89 95 -130 0
-19 30 -50 48 -50 6 0 14 -15 17 -33 4 -20 17 -40 35 -52 37 -25 63 -70 55
-95 -8 -26 -35 -26 -35 0 0 11 5 20 11 20 5 0 8 4 5 9 -4 5 -16 4 -30 -2 -19
-9 -22 -14 -12 -29 8 -13 7 -26 -1 -48 -10 -25 -9 -36 5 -60 9 -17 24 -30 32
-30 25 -1 46 -23 53 -55 3 -16 4 -24 1 -17 -3 6 -14 12 -25 12 -11 0 -25 13
-34 31 -9 16 -22 28 -28 26 -7 -2 -20 0 -30 5 -12 6 -17 5 -17 -6 0 -23 62
-76 90 -76 40 0 70 -11 70 -25 0 -8 10 -17 22 -21 26 -8 47 -32 48 -54 1 -18
30 -55 50 -62 9 -3 -3 -10 -27 -17 -46 -13 -55 -26 -23 -35 11 -3 29 -9 40
-12 15 -4 20 -1 20 15 0 27 3 26 34 -3 21 -18 26 -33 25 -67 l0 -44 -16 40
c-9 22 -21 43 -25 46 -15 10 -58 -2 -58 -16 0 -17 -32 -28 -40 -14 -11 17 -23
-7 -15 -30 4 -13 0 -21 -12 -24 -14 -4 -13 -5 5 -6 12 0 22 -5 22 -9 0 -4 12
-15 28 -24 21 -12 31 -13 44 -5 26 17 40 -3 46 -62 4 -46 7 -51 29 -51 26 0
39 -21 28 -47 -7 -17 -8 -16 -15 2 -7 19 -9 18 -19 -7 -6 -16 -15 -28 -20 -28
-5 0 -7 -9 -4 -20 4 -15 0 -20 -16 -20 -11 0 -21 -3 -21 -6 0 -12 45 -43 63
-44 24 0 21 17 -4 23 -38 10 -9 27 47 27 56 0 76 -16 27 -22 -26 -3 -28 -7
-31 -50 -2 -29 1 -48 7 -48 6 0 11 -6 11 -13 0 -6 13 -24 29 -39 30 -29 47
-90 31 -117 -8 -14 -10 -14 -11 -1 -1 8 -5 -3 -9 -25 -5 -26 -4 -42 3 -47 8
-5 8 -17 0 -41 -6 -20 -7 -41 -2 -48 9 -15 12 -6 10 26 -1 11 2 16 6 10 4 -5
15 -10 23 -10 11 0 14 -9 12 -33 -2 -22 2 -34 12 -38 25 -9 19 -24 -9 -24 -14
0 -25 4 -25 10 0 17 -59 41 -85 34 -28 -7 -33 -29 -10 -38 12 -4 14 -10 5 -25
-8 -16 -7 -22 9 -30 15 -8 22 -6 32 8 8 11 32 21 57 25 37 6 42 4 42 -14 0
-21 15 -27 25 -9 4 6 17 14 29 18 16 6 25 3 36 -13 17 -25 14 -31 -20 -31 -33
0 -41 -40 -11 -50 16 -5 21 -14 20 -38 0 -18 -3 -26 -6 -19 -6 15 -93 17 -93
1 0 -7 11 -9 26 -6 20 4 27 -1 35 -20 6 -16 15 -23 24 -19 9 3 15 0 15 -9 0
-8 -5 -15 -12 -15 -6 0 -9 -2 -6 -5 9 -9 38 7 38 21 0 7 9 18 20 24 11 6 20
17 20 25 0 8 5 15 10 15 17 0 11 42 -7 56 -24 17 -6 34 30 27 24 -5 27 -10 27
-42 0 -33 4 -39 36 -54 29 -14 39 -15 57 -5 19 11 20 13 5 16 -22 4 -22 11 -1
34 24 27 4 46 -32 30 -24 -11 -25 -10 -25 23 0 18 5 37 10 40 17 11 11 35 -9
35 -11 0 -22 8 -26 18 -3 11 -17 24 -30 30 -31 14 -35 58 -6 67 20 6 61 -13
61 -27 0 -5 6 -8 13 -8 18 0 67 -65 67 -89 0 -12 4 -21 9 -21 5 0 13 -10 17
-22 3 -12 14 -29 23 -39 21 -23 114 -59 150 -59 50 0 89 -12 95 -29 4 -9 13
-27 21 -41 11 -19 15 -21 15 -7 0 21 42 23 63 2 8 -8 43 -21 78 -29 39 -9 70
-22 80 -35 10 -12 29 -21 43 -21 18 0 29 -7 34 -21 12 -31 95 -37 125 -9 11
11 32 20 46 21 14 0 51 3 81 5 30 3 62 5 70 6 8 1 36 -2 63 -7 30 -4 47 -4 47
3 0 5 9 12 20 15 12 3 20 14 20 26 0 12 4 21 10 21 5 0 7 6 4 14 -4 10 1 12
19 9 27 -5 50 17 45 44 -2 12 -13 18 -33 18 -45 1 -85 15 -85 31 0 8 9 14 21
14 14 0 19 5 17 17 -2 12 -15 18 -45 20 -34 2 -41 0 -37 -12 9 -23 -14 -18
-39 8 -12 13 -30 26 -39 30 -10 3 -18 15 -18 25 0 24 50 32 197 34 94 1 93 14
-2 17 -22 1 -48 8 -58 15 -16 12 -15 14 10 24 16 6 38 14 51 17 14 4 21 12 18
20 -5 15 24 45 44 45 7 0 18 7 24 15 6 9 34 18 64 22 43 5 58 12 90 44 20 22
42 37 49 34 7 -2 15 0 17 4 10 15 114 63 124 57 6 -3 17 -3 26 0 12 5 14 10 6
19 -13 16 32 55 64 55 12 0 39 15 59 34 26 23 51 36 83 41 25 3 48 13 51 21 3
8 14 14 24 14 11 0 27 4 37 8 9 5 42 21 72 35 30 15 61 27 67 27 7 0 27 13 45
29 18 16 42 30 53 33 11 2 19 10 18 18 -2 9 18 27 47 43 47 27 70 52 70 77 0
7 -8 9 -19 5 -14 -4 -27 4 -48 30 -33 41 -43 44 -43 10 0 -16 6 -25 15 -25 20
0 19 -41 -1 -66 -8 -10 -13 -13 -9 -6 3 6 2 12 -4 12 -6 0 -19 9 -30 21 -20
22 -41 19 -41 -6 0 -8 -4 -17 -10 -20 -6 -3 -7 1 -4 9 3 9 2 16 -4 16 -25 0
-42 -14 -42 -35 0 -12 -9 -30 -20 -40 -11 -10 -20 -14 -20 -9 0 5 -10 14 -22
19 -13 6 -22 18 -22 28 2 19 -11 23 -22 6 -3 -6 -1 -16 5 -22 14 -14 14 -27 1
-27 -5 0 -10 7 -10 16 0 11 -6 13 -19 9 -14 -4 -23 0 -31 15 -8 15 -17 19 -32
14 -16 -5 -19 -3 -12 7 6 12 5 12 -9 0 -9 -7 -17 -20 -17 -27 0 -8 -4 -14 -10
-14 -5 0 -10 4 -10 10 0 5 -13 7 -30 4 -29 -6 -30 -5 -30 27 0 19 7 47 15 63
18 34 18 36 5 36 -5 0 -10 -6 -10 -13 0 -7 -11 -23 -25 -35 -14 -12 -25 -19
-25 -16 0 3 -9 -1 -19 -9 -14 -9 -36 -11 -75 -7 -54 6 -78 -6 -35 -17 14 -4
17 -8 8 -13 -14 -9 -68 7 -89 26 -12 12 -11 14 8 14 12 0 24 0 27 0 9 -1 34
27 37 40 2 7 -11 14 -29 16 -22 2 -33 0 -33 -9 0 -8 -4 -7 -10 3 -8 13 -11 13
-19 1 -7 -11 -12 -10 -27 5 -13 13 -19 33 -19 66 0 26 3 48 8 48 4 0 12 0 17
0 6 0 10 -9 10 -20 0 -12 7 -20 16 -20 13 0 14 3 4 15 -6 8 -9 19 -6 24 4 5 2
12 -4 16 -6 4 -4 18 6 38 16 30 16 32 -5 45 -11 8 -21 21 -21 28 0 8 -4 14 -9
14 -5 0 -12 11 -15 24 -3 14 -20 34 -37 46 l-30 22 -46 -47 c-43 -45 -45 -49
-38 -90 5 -39 3 -50 -22 -94 -2 -2 -10 2 -18 9 -12 10 -14 23 -9 57 6 42 6 43
-22 44 -24 1 -25 2 -6 6 37 7 27 33 -13 33 -34 0 -46 -12 -25 -25 6 -4 8 -11
5 -16 -4 -5 8 -9 24 -9 23 0 31 -5 31 -18 0 -15 -6 -18 -32 -14 -18 2 -38 9
-45 14 -21 17 -25 -11 -3 -34 15 -16 17 -24 8 -29 -7 -5 -16 -3 -19 3 -5 8
-13 6 -24 -6 -13 -13 -20 -14 -31 -5 -11 9 -14 8 -14 -5 0 -10 4 -15 9 -11 18
10 22 -15 10 -53 -14 -41 -13 -73 4 -84 6 -4 -1 -10 -16 -13 -19 -5 -34 -2
-45 7 -9 8 -25 18 -34 21 -24 9 -23 27 2 27 24 0 26 13 5 30 -20 16 -19 36 1
44 14 5 12 9 -7 26 -23 18 -23 19 -4 20 14 1 16 3 5 7 -8 4 -21 15 -30 26 -12
14 -23 18 -38 13 -12 -4 -22 -12 -22 -17 0 -5 -18 -9 -40 -9 -39 0 -39 0 -34
-32 4 -25 3 -29 -5 -18 -7 11 -27 15 -66 14 -30 -1 -56 2 -56 7 -3 19 -5 25
-15 42 -6 10 -28 24 -50 32 -25 9 -38 19 -36 28 1 9 -2 18 -8 22 -15 9 -12 25
5 25 15 0 41 38 32 47 -3 2 -17 -3 -31 -12 -28 -19 -28 -19 -41 40 -15 67 -12
89 15 95 14 3 25 10 25 15 1 33 47 48 62 20 11 -20 135 -32 131 -13 -2 8 7 13
26 13 16 0 31 6 33 13 3 7 -5 12 -19 12 -30 0 -63 23 -54 38 4 7 23 9 50 6 27
-4 46 -2 50 5 10 16 26 14 26 -4 0 -8 7 -15 15 -15 8 0 15 7 15 15 0 8 9 15
20 15 11 0 20 -4 20 -10 0 -5 7 -7 15 -4 8 4 15 1 15 -5 0 -6 9 -11 20 -11 11
0 23 -7 26 -15 4 -8 13 -15 21 -15 12 0 12 -2 -1 -15 -21 -22 -46 -18 -72 10
-23 25 -64 34 -64 15 0 -6 11 -16 25 -22 14 -6 25 -16 25 -22 0 -29 109 -57
136 -35 18 15 47 -7 41 -31 -5 -18 22 -40 48 -40 8 0 15 7 15 16 0 11 4 14 13
7 6 -5 38 -7 70 -5 57 4 58 4 41 23 -10 11 -25 17 -34 14 -27 -8 -54 39 -38
64 10 16 9 23 -5 39 -16 18 -16 20 -2 26 9 3 21 4 26 0 5 -3 9 6 9 20 0 22 4
26 33 27 54 1 94 8 175 30 84 24 117 27 145 14 16 -6 18 -4 15 16 -1 13 -13
28 -25 34 -13 5 -23 13 -23 17 0 11 8 10 30 -2 13 -7 21 -7 25 0 10 17 25 11
25 -10 0 -11 5 -20 11 -20 6 0 9 6 6 14 -3 8 1 17 9 20 8 3 14 12 14 21 0 12
-9 15 -37 13 -34 -3 -38 0 -46 30 -6 17 -16 32 -23 32 -8 0 -14 10 -14 21 0
18 3 19 15 9 19 -15 65 -5 65 15 0 8 -4 15 -10 15 -5 0 -7 7 -4 15 5 11 -1 15
-20 15 -18 0 -24 4 -20 14 7 19 -14 30 -30 16 -8 -6 -40 -13 -71 -15 -53 -4
-57 -3 -52 15 4 17 0 20 -33 20 -43 0 -64 17 -28 22 13 2 23 8 23 15 0 13 71
53 128 72 20 7 37 19 37 27 0 8 10 14 24 14 13 0 29 6 36 14 9 12 0 11 -39 -4
-28 -10 -74 -21 -103 -25 -29 -3 -61 -9 -70 -11 -13 -4 -16 -1 -12 10 3 9 15
16 25 16 10 0 19 7 19 15 0 8 -5 15 -10 15 -6 0 -10 8 -8 18 3 14 -5 17 -51
17 -43 0 -55 -3 -59 -17 -6 -23 -17 -23 -39 1 -20 20 -70 33 -79 20 -2 -5 -18
-6 -34 -2 -23 4 -30 2 -30 -11 0 -23 -17 -20 -23 4 -7 27 -23 25 -30 -2 -10
-40 -30 -58 -54 -52 -26 7 -31 22 -7 20 9 0 19 5 21 12 3 6 -2 12 -11 12 -15
0 -20 15 -17 50 1 12 -11 15 -51 16 -85 0 -198 16 -198 26 0 6 -7 7 -15 4 -9
-3 -18 1 -21 9 -4 8 -12 15 -20 15 -8 0 -14 9 -14 20 0 14 -7 20 -23 20 -20 0
-97 60 -97 75 0 12 69 3 80 -10 7 -9 20 -13 29 -10 11 3 10 0 -3 -10 -17 -13
-17 -15 -4 -15 9 0 29 5 43 10 32 12 75 3 75 -16 0 -8 7 -14 15 -14 8 0 15 7
15 15 0 18 5 18 31 5 23 -13 235 -16 252 -3 6 5 45 8 84 8 49 0 74 4 78 12 2
7 12 13 22 13 10 0 40 11 68 24 27 13 73 34 102 46 38 17 50 27 46 39 -4 14
-3 14 9 -1 12 -14 21 -15 57 -7 24 5 51 14 60 19 10 5 33 5 56 0 45 -10 58 -4
33 14 -20 15 -14 25 30 49 22 13 42 16 63 12 23 -5 34 -3 44 12 11 14 16 15
26 6 10 -10 9 -14 -4 -19 -9 -3 -17 -10 -17 -15 0 -13 37 -11 52 4 15 14 137
57 162 57 9 0 16 -5 16 -11 0 -7 10 -9 28 -4 37 9 55 27 22 23 -14 -2 -26 2
-28 7 -1 6 13 11 33 13 22 2 35 8 35 18 0 8 5 14 10 14 6 0 10 4 10 10 0 20
67 78 99 85 20 4 35 15 38 26 3 10 13 19 22 19 24 1 54 27 46 41 -13 20 -94 1
-175 -40 -55 -28 -98 -42 -155 -50 -44 -6 -97 -14 -117 -17 -24 -4 -38 -3 -38
4 0 13 -58 13 -66 0 -3 -4 2 -8 10 -8 28 0 17 -19 -24 -40 -22 -11 -40 -16
-40 -11 0 5 -22 8 -49 7 -52 -3 -81 -22 -81 -53 0 -10 -9 -24 -19 -30 -19 -12
-19 -11 -6 26 7 21 10 43 6 50 -8 13 -41 5 -41 -10 0 -5 -9 -9 -20 -9 -11 0
-20 5 -20 11 0 8 -15 9 -47 4 -47 -7 -53 7 -8 18 13 3 9 5 -12 6 -20 1 -35 -5
-41 -15 -13 -24 -54 -14 -58 14 -4 20 0 22 41 22 25 0 45 5 45 10 0 11 -28 13
-82 4 -24 -4 -38 -13 -41 -26 -5 -17 -12 -19 -66 -14 -62 6 -68 2 -62 -36 3
-21 -29 -5 -35 17 -3 14 -13 25 -21 25 -9 0 -13 6 -10 15 4 8 2 17 -3 20 -6 4
-10 1 -10 -6 0 -8 -12 -9 -42 -4 -24 4 -86 8 -138 9 -52 2 -107 8 -122 14 -19
8 -100 10 -255 7 -270 -5 -316 -9 -321 -24 -2 -7 -10 -6 -25 4 -28 19 -47 19
-47 0 0 -12 -4 -13 -19 -5 -23 12 -77 12 -106 1 -23 -9 -48 -3 -40 9 3 5 -4
12 -16 15 -14 5 -19 13 -16 26 6 23 -6 25 -23 4 -20 -24 -33 -17 -28 14 2 17
1 28 -4 25 -9 -6 -11 30 -2 39 3 3 14 1 25 -6 27 -17 33 -3 18 47 -8 28 -20
47 -32 50 -29 7 -19 50 13 54 14 2 31 5 38 7 7 3 14 3 16 2 2 -1 13 9 24 23
13 16 17 29 11 36 -6 8 -4 14 7 18 22 9 24 8 18 -9 -4 -9 0 -15 9 -15 13 0 14
-6 6 -35 -6 -20 -7 -45 -4 -55 4 -12 2 -20 -4 -20 -6 0 -11 8 -11 18 0 10 -3
21 -6 24 -10 10 -44 -4 -44 -18 0 -8 -5 -14 -11 -14 -13 0 -1 -42 15 -52 6 -4
24 -8 39 -8 20 0 30 -6 34 -20 4 -16 9 -18 24 -10 10 6 16 17 13 24 -3 8 -1
17 5 21 6 3 11 15 11 25 0 27 17 34 36 16 22 -22 44 -20 44 5 0 11 6 27 14 34
12 12 16 10 26 -15 18 -43 48 -48 63 -10 4 12 6 11 6 -2 1 -10 9 -18 19 -18
16 -1 16 -1 0 -14 -27 -20 -22 -24 20 -17 28 5 38 11 40 29 2 12 7 20 12 17 4
-3 13 2 20 10 9 11 16 12 32 2 16 -10 22 -8 39 13 19 22 19 25 5 36 -13 9 -9
11 24 9 22 -1 43 2 46 7 3 4 10 6 15 3 5 -3 6 1 3 9 -3 9 -14 16 -23 16 -26 0
-31 9 -21 36 7 17 6 24 -3 24 -7 0 -14 11 -15 24 -1 19 4 25 26 29 33 6 46 -1
33 -17 -12 -14 -5 -26 16 -26 11 0 13 8 8 29 -5 22 -1 35 14 50 16 16 21 17
21 6 0 -7 -8 -18 -17 -24 -13 -7 -14 -13 -7 -23 12 -15 28 -56 19 -46 -7 7
-45 -22 -45 -33 0 -4 7 -10 15 -13 22 -8 56 15 50 34 -4 12 2 15 23 14 15 0
30 3 33 9 4 5 12 6 18 3 16 -10 13 -36 -4 -36 -8 0 -15 -5 -15 -11 0 -6 3 -9
8 -7 4 3 22 11 40 18 36 16 40 25 15 39 -28 15 -11 21 37 13 40 -7 42 -8 27
-24 -19 -18 -22 -38 -7 -38 6 0 10 7 10 15 0 8 6 15 13 15 21 0 47 33 49 62 1
17 7 24 15 21 7 -3 20 0 28 7 8 7 21 10 28 7 22 -8 35 5 37 38 3 47 1 55 -14
55 -20 0 -31 19 -18 32 6 6 32 16 59 23 59 15 67 37 24 72 -17 14 -31 32 -31
39 0 21 -31 33 -57 21 -16 -7 -30 -7 -49 2 -21 9 -25 16 -19 40 4 21 2 30 -11
35 -9 3 -14 13 -10 21 6 17 -10 30 -19 14 -4 -6 -2 -16 4 -22 14 -14 14 -54 1
-62 -6 -4 -7 1 -3 12 6 16 5 16 -10 4 -15 -12 -22 -12 -45 0 -41 21 -76 56
-60 62 7 2 1 2 -14 0 -30 -5 -95 15 -116 35 -32 29 -80 62 -113 76 -29 12 -40
12 -73 1 -21 -8 -42 -19 -46 -26 -6 -9 -14 -8 -31 5 -19 13 -23 24 -20 55 1
22 -5 53 -13 69 -15 29 -15 31 4 37 11 4 20 15 20 25 0 19 40 50 65 50 20 0
19 17 -2 29 -17 10 -16 11 4 17 13 4 24 17 28 34 3 16 13 34 21 41 8 6 14 19
14 28 0 9 19 37 43 62 24 26 41 52 39 58 -2 6 4 25 12 42 9 18 16 40 16 50 0
10 16 31 36 47 19 16 35 38 34 48 0 10 -1 35 -3 54 -1 19 3 47 10 62 17 34 17
75 1 82 -9 3 -8 8 5 16 16 11 24 40 10 40 -3 0 -14 -7 -24 -16 -22 -20 -42 -9
-33 18 3 11 2 18 -3 15 -5 -3 -15 -2 -23 3 -12 7 -11 10 4 16 10 4 27 2 37 -4
22 -14 33 -1 24 28 -4 14 -2 20 8 20 8 0 17 7 21 15 6 17 -19 21 -29 5 -4 -6
-11 -8 -16 -4 -6 3 -5 12 3 21 16 19 17 83 2 83 -6 0 -10 -10 -10 -21 1 -12
-4 -24 -9 -26 -6 -2 -9 15 -7 42 2 25 8 45 13 45 5 0 9 7 9 15 0 8 5 14 12 13
6 -2 15 13 19 32 4 19 12 36 18 38 6 2 12 18 12 35 1 24 3 26 6 9 2 -12 9 -20
14 -17 14 9 11 68 -6 91 -13 19 -12 28 7 85 12 35 25 66 28 69 4 3 15 27 25
53 10 26 23 51 29 55 13 8 32 38 47 72 5 13 15 28 21 32 9 5 8 11 -1 21 -8 10
-9 17 -1 22 5 3 10 15 10 26 0 11 7 22 15 25 8 4 15 14 15 23 0 10 14 31 30
48 39 40 100 50 173 29 89 -26 138 -94 158 -220 6 -33 18 -87 29 -121 10 -33
33 -121 50 -195 34 -140 106 -366 185 -580 25 -69 56 -159 69 -200 13 -41 34
-102 46 -135 19 -52 21 -66 11 -103 -10 -38 -9 -46 11 -75 13 -18 24 -34 26
-37 2 -3 8 3 13 13 14 24 34 21 56 -7 11 -15 49 -34 103 -52 47 -16 88 -33 91
-38 10 -13 88 -19 102 -8 16 13 89 21 272 32 227 13 364 30 417 51 27 10 60
19 74 19 14 0 35 9 47 21 12 11 35 23 50 26 30 6 59 43 34 43 -8 0 -20 -7 -27
-15 -8 -10 -17 -12 -23 -6 -5 5 -28 7 -50 5 -35 -3 -32 -1 18 11 88 22 179 52
258 86 234 99 451 348 563 647 39 103 111 359 138 491 36 174 97 292 104 199
1 -18 7 -69 12 -113 5 -44 12 -127 16 -185 4 -58 11 -108 16 -111 21 -14 50
-197 57 -353 4 -107 10 -161 18 -163 10 -4 23 20 29 55 5 27 46 101 59 106 9
3 12 12 9 21 -8 19 14 65 30 65 6 0 18 4 26 10 12 7 9 13 -13 30 -34 27 -34
38 3 80 16 19 29 47 30 62 0 14 4 28 10 30 5 2 12 47 15 101 5 90 4 103 -18
150 -50 107 -61 108 -131 10 -26 -36 -50 -62 -54 -58 -6 6 -41 158 -42 184 0
11 3 11 16 0 16 -13 15 -2 -2 63 -8 29 14 57 51 64 48 9 44 27 -5 22 -24 -2
-36 0 -30 6 5 5 5 16 0 26 -7 13 -4 25 10 43 27 33 34 212 10 227 -13 8 -13
10 2 10 9 0 29 -15 43 -34 14 -19 38 -42 53 -52 l27 -17 -19 21 c-18 20 -18
22 -1 28 10 4 26 2 36 -5 21 -12 26 -2 7 17 -9 9 -9 17 0 34 6 13 13 41 15 63
3 22 7 49 10 60 3 11 6 22 6 24 1 2 10 -4 21 -14 19 -18 20 -17 20 3 0 11 -4
24 -10 27 -11 7 -14 94 -4 119 3 9 12 16 20 16 14 0 13 21 -2 68 -2 7 3 15 11
18 8 4 13 10 10 15 -3 4 -12 6 -20 2 -10 -3 -15 1 -15 12 0 9 5 13 10 10 13
-8 13 8 -1 22 -7 7 -7 13 0 17 5 4 8 13 5 20 -3 8 -1 17 5 21 7 4 9 21 5 43
-5 31 -1 42 20 65 19 21 32 26 47 22 16 -5 20 -3 17 11 -2 12 5 20 22 24 17 4
21 8 12 14 -6 4 -15 5 -19 3 -5 -3 -17 -1 -28 4 -17 6 -17 8 -2 8 23 1 22 18
-3 26 -23 7 -27 25 -6 25 7 0 19 6 25 14 9 11 7 15 -10 19 -14 4 -20 11 -16
21 4 9 3 16 -1 16 -4 0 -12 11 -18 24 -9 20 -8 27 6 39 10 8 20 21 22 28 4 12
8 11 24 -1 17 -14 18 -13 7 1 -7 9 -9 20 -5 24 4 5 0 5 -8 1 -18 -9 9 13 36
30 15 8 13 10 -12 10 -18 -1 -28 4 -27 12 2 6 -2 12 -7 12 -6 0 -10 15 -10 34
0 19 -4 38 -10 41 -14 9 -12 25 3 25 15 0 20 37 6 45 -5 4 -9 15 -9 25 0 13
-5 17 -15 14 -9 -4 -15 0 -15 10 0 11 9 16 30 16 36 0 35 0 10 45 -11 19 -17
35 -14 35 3 0 -3 14 -13 30 -13 22 -14 33 -7 38 7 4 13 16 16 27 2 11 10 19
19 17 12 -2 15 4 11 23 -3 18 0 25 12 25 22 0 20 8 -5 29 -12 10 -22 31 -24
53 -2 20 -11 52 -20 71 -9 19 -15 38 -14 43 1 5 1 28 0 52 -1 29 -5 42 -15 42
-9 0 -12 7 -9 20 3 11 10 20 16 20 6 0 0 11 -12 24 -13 14 -20 29 -16 35 3 6
1 11 -4 11 -6 0 -11 9 -11 20 0 25 8 25 27 3 13 -16 13 -16 4 4 -6 12 -18 29
-27 37 -20 21 -11 46 17 46 19 0 20 2 8 16 -7 9 -12 33 -10 56 1 21 -2 45 -9
52 -6 8 -10 18 -9 22 5 27 -3 45 -17 42 -26 -5 -40 26 -26 54 7 12 11 16 8 6
-6 -21 18 -56 28 -40 8 14 -16 73 -37 91 -10 7 -17 25 -16 40 0 25 1 26 11 4
6 -12 17 -24 24 -27 11 -4 14 8 13 57 -1 34 -4 73 -8 87 -10 34 -2 70 15 70
21 0 17 17 -6 23 -11 3 -20 10 -20 16 0 15 27 14 33 -1 4 -10 6 -10 6 0 1 7
-7 24 -16 39 -17 26 -17 26 4 14 33 -17 35 -14 8 13 -16 16 -22 31 -18 45 6
24 14 26 31 9 27 -27 10 7 -23 45 -32 37 -49 87 -25 72 6 -3 10 -1 10 6 0 8 4
8 15 -1 9 -7 15 -8 15 -2 0 5 -6 12 -14 15 -8 3 -17 19 -21 36 -4 17 -10 29
-14 26 -10 -6 -29 34 -29 63 -1 13 -7 30 -14 39 -6 8 -13 20 -14 27 -1 6 -5
19 -9 28 -5 13 -2 15 15 11 16 -4 12 4 -20 38 -22 24 -44 44 -48 45 -28 3 -37
17 -35 53 1 27 -3 41 -13 45 -8 3 -14 14 -14 25 0 11 -9 25 -20 31 -11 6 -20
20 -20 31 0 11 -11 31 -25 45 -31 31 -31 34 1 34 27 0 27 0 -7 23 -19 13 -42
26 -51 30 -19 7 -25 27 -8 27 6 0 10 -5 10 -12 0 -6 3 -8 6 -5 6 6 0 21 -47
121 -10 22 -17 41 -15 43 6 6 46 -20 46 -29 0 -5 5 -8 10 -8 16 0 -12 39 -33
46 -20 6 -117 131 -117 150 0 8 9 14 20 14 20 0 38 -39 26 -58 -6 -10 34 -25
42 -17 3 2 5 28 6 57 1 40 -5 61 -21 86 -13 18 -23 37 -23 42 0 6 -4 10 -9 10
-5 0 -13 10 -17 22 -3 12 -13 28 -21 36 -8 8 -12 21 -9 28 3 7 1 16 -5 20 -6
3 -8 12 -5 19 2 7 -2 16 -9 19 -8 3 -13 11 -11 18 1 7 1 10 -1 6 -10 -18 -23
-6 -23 20 0 15 -7 38 -16 50 -14 21 -14 23 7 30 l23 9 -23 6 c-14 3 -20 10
-16 17 4 6 -1 20 -10 30 -9 10 -14 24 -9 31 4 7 3 10 -3 6 -24 -15 -123 136
-123 188 0 17 1 17 20 0 30 -27 34 -12 5 15 -14 13 -25 28 -25 33 0 5 -12 21
-27 36 -49 49 -73 79 -73 90 0 6 -12 13 -27 17 -16 4 -38 13 -50 20 -13 8 -23
12 -23 9 0 -3 -13 1 -30 10 -16 8 -42 15 -57 15 -25 0 -71 19 -48 20 6 0 3 5
-5 10 -8 6 -31 8 -50 5 -19 -3 -41 -1 -49 4 -20 13 31 22 124 23 41 1 75 2 75
3 0 2 -17 11 -37 21 -25 12 -32 19 -22 22 9 1 38 -9 64 -23 55 -29 67 -31 59
-10 -4 8 -1 15 6 15 10 0 10 3 0 15 -15 18 -35 20 -24 3 4 -7 3 -8 -5 -4 -6 4
-9 11 -6 16 3 4 -6 15 -20 24 -13 9 -32 30 -41 47 -13 25 -20 30 -41 26 -15
-3 -40 3 -57 12 -18 10 -41 15 -55 11 -19 -4 -9 -10 50 -29 93 -30 116 -48 60
-47 -22 1 -46 7 -53 14 -6 6 -25 12 -40 12 -18 0 -28 5 -28 15 0 10 -10 15
-29 15 -45 0 -46 17 -1 24 21 3 42 11 46 17 4 8 0 9 -15 4 -17 -5 -21 -2 -21
14 0 12 6 21 14 21 8 0 16 5 18 11 3 9 10 9 26 0 23 -12 32 2 10 15 -7 5 -5
11 7 21 18 12 17 13 -5 13 -16 0 -21 3 -14 10 6 6 22 6 44 0 18 -5 36 -8 38
-6 2 3 -11 9 -30 14 -18 5 -41 13 -50 17 -13 5 -18 2 -18 -9 0 -11 -9 -16 -26
-16 -14 0 -23 4 -19 10 3 6 14 10 23 10 10 0 6 6 -13 16 -19 10 -31 11 -33 5
-2 -6 -9 -11 -16 -11 -8 0 -11 10 -8 31 3 22 8 27 15 20 14 -14 27 -14 27 -1
0 6 -6 10 -14 10 -8 0 -21 8 -28 18 -14 20 -23 20 -121 8 -53 -7 -60 -6 -77
15 -19 21 -21 21 -38 6 -10 -10 -32 -17 -49 -17 -18 0 -47 -13 -72 -31 -43
-30 -65 -33 -41 -4 14 17 0 21 -17 4 -6 -6 -17 -9 -24 -7 -7 2 25 35 72 72 80
65 127 115 59 65 -47 -35 -73 -48 -83 -42 -11 6 35 51 47 45 5 -3 6 0 1 7 -4
7 2 22 16 37 l22 24 -26 0 c-15 0 -27 5 -27 10 0 6 7 10 15 10 8 0 15 5 15 11
0 7 8 18 18 25 9 7 12 14 6 14 -6 0 -19 -9 -30 -21 -17 -19 -84 -59 -100 -59
-3 0 -3 12 0 28 6 26 6 26 -9 8 -14 -19 -15 -18 -15 17 0 20 -4 37 -10 37 -5
0 -10 -14 -10 -31 0 -33 -27 -88 -45 -90 -5 -1 -14 -2 -20 -4 -5 -1 -26 -3
-46 -3 -24 -1 -45 -11 -62 -28 -19 -19 -39 -27 -70 -29 -24 -1 -59 -10 -78
-18 -40 -18 -89 -27 -89 -17 0 4 9 15 19 24 15 13 20 14 24 4 3 -9 9 -8 20 7
15 19 14 20 -14 23 -17 2 -41 -4 -54 -12 -21 -14 -24 -14 -36 0 -11 14 -10 18
6 30 25 18 36 18 29 -1 -4 -8 -2 -15 4 -15 12 0 24 29 16 41 -3 5 0 9 5 9 22
0 10 16 -19 27 -32 12 -42 46 -15 57 8 3 15 9 15 14 0 11 -44 10 -52 -2 -4 -6
-6 4 -6 22 1 25 4 30 14 21 9 -8 15 -5 23 9 17 31 19 143 4 181 -7 19 -14 49
-16 67 -1 19 -8 36 -14 39 -7 2 -13 11 -13 20 0 8 -6 15 -14 15 -8 0 -22 20
-32 45 -9 25 -19 45 -23 44 -3 0 -17 -4 -31 -9z m15 -49 c6 -10 -49 -41 -72
-41 -7 0 -13 -4 -13 -10 0 -5 9 -10 20 -10 25 0 26 -17 3 -23 -53 -15 -73 -16
-73 -7 0 5 7 10 16 10 14 0 14 3 4 15 -10 12 -10 15 0 15 8 0 10 3 7 6 -4 4
-22 -5 -41 -20 -36 -27 -56 -33 -56 -16 0 6 7 10 15 10 7 0 18 8 23 17 24 42
149 83 167 54z m-15 -91 c0 -5 -5 -10 -11 -10 -5 0 -7 5 -4 10 3 6 8 10 11 10
2 0 4 -4 4 -10z m-130 -40 c-8 -5 -19 -10 -25 -10 -5 0 -3 5 5 10 8 5 20 10
25 10 6 0 3 -5 -5 -10z m41 -52 c-19 -32 -59 -64 -67 -55 -10 10 9 36 28 39
21 3 30 15 43 53 5 12 9 15 12 8 3 -7 -4 -28 -16 -45z m195 28 c8 -34 -2 -111
-20 -148 -9 -17 -16 -41 -16 -53 0 -21 -17 -45 -33 -45 -4 0 -5 5 -2 11 4 6 0
16 -8 22 -9 7 -17 26 -19 42 -2 23 -7 29 -22 27 -17 -3 -18 -2 -6 13 7 9 16
12 19 7 3 -5 13 -9 21 -9 17 1 56 37 39 37 -10 0 -3 40 10 50 3 3 6 11 7 18 1
6 2 21 3 32 2 28 19 25 27 -4z m-136 10 c0 -3 -4 -8 -10 -11 -5 -3 -10 -1 -10
4 0 6 5 11 10 11 6 0 10 -2 10 -4z m75 -16 c-3 -5 -10 -10 -16 -10 -5 0 -9 5
-9 10 0 6 7 10 16 10 8 0 12 -4 9 -10z m-15 -46 c0 -22 -16 -17 -17 6 -1 11 2
18 8 15 5 -4 9 -13 9 -21z m-204 -11 c-10 -10 -19 5 -10 18 6 11 8 11 12 0 2
-7 1 -15 -2 -18z m109 -34 c-4 -5 -13 -9 -22 -9 -13 0 -13 3 -3 15 13 15 35
11 25 -6z m-160 -9 c-3 -5 -11 -10 -16 -10 -6 0 -7 5 -4 10 3 6 11 10 16 10 6
0 7 -4 4 -10z m-170 -10 c-3 -5 -10 -10 -16 -10 -5 0 -9 5 -9 10 0 6 7 10 16
10 8 0 12 -4 9 -10z m285 0 c0 -5 -4 -10 -10 -10 -5 0 -10 5 -10 10 0 6 5 10
10 10 6 0 10 -4 10 -10z m-23 -36 c-3 -3 -12 -4 -19 -1 -8 3 -5 6 6 6 11 1 17
-2 13 -5z m108 -34 c-3 -5 -10 -10 -16 -10 -5 0 -9 5 -9 10 0 6 7 10 16 10 8
0 12 -4 9 -10z m-1295 -34 c0 -3 -4 -8 -10 -11 -5 -3 -10 -1 -10 4 0 6 5 11
10 11 6 0 10 -2 10 -4z m-100 -31 c-7 -9 -15 -13 -17 -11 -7 7 7 26 19 26 6 0
6 -6 -2 -15z m1448 -18 c2 -12 -3 -17 -17 -17 -12 0 -21 6 -21 13 0 31 32 34
38 4z m-1408 -2 c0 -8 -4 -15 -10 -15 -5 0 -7 7 -4 15 4 8 8 15 10 15 2 0 4
-7 4 -15z m-10 -55 c0 -5 -7 -10 -16 -10 -8 0 -12 5 -9 10 3 6 10 10 16 10 5
0 9 -4 9 -10z m1400 1 c0 -16 -50 -62 -61 -55 -8 5 -8 9 1 14 7 4 9 13 6 19
-4 6 -4 16 -1 21 8 12 55 13 55 1z m134 -15 c-5 -14 -54 -15 -54 0 0 17 9 21
35 17 13 -3 22 -10 19 -17z m499 -65 c-38 -34 -50 -50 -42 -58 13 -13 -17 -62
-37 -63 -21 0 -24 29 -4 40 11 6 17 17 14 24 -8 22 101 125 115 110 3 -4 -18
-27 -46 -53z m-147 11 c6 -4 -8 -16 -33 -29 -39 -20 -44 -21 -41 -6 2 10 14
23 28 30 29 15 32 15 46 5z m-416 -12 c0 -5 -4 -10 -10 -10 -5 0 -10 5 -10 10
0 6 5 10 10 10 6 0 10 -4 10 -10z m293 -49 c-15 -16 -31 -24 -34 -19 -4 7 -9
6 -13 -1 -8 -13 -36 -15 -36 -3 0 12 72 51 93 52 15 0 14 -5 -10 -29z m92 -1
c-10 -11 -20 -18 -23 -15 -3 3 3 14 13 25 10 11 20 18 23 15 3 -3 -3 -14 -13
-25z m-2445 -30 c0 -5 -9 -10 -19 -10 -11 0 -23 -5 -26 -11 -4 -6 -14 -8 -22
-5 -19 8 -90 -13 -104 -31 -6 -7 -19 -13 -28 -13 -28 1 46 60 77 61 15 0 36 4
47 9 28 12 75 12 75 0z m2240 -20 c-12 -16 -29 -30 -39 -30 -9 0 -22 -5 -28
-11 -8 -8 -13 -8 -18 0 -7 13 21 26 68 30 5 1 5 6 1 12 -3 6 0 15 7 20 27 17
30 9 9 -21z m65 0 c-3 -5 -13 -10 -21 -10 -8 0 -12 5 -9 10 3 6 13 10 21 10 8
0 12 -4 9 -10z m465 1 c0 -11 -70 -45 -77 -38 -8 9 7 27 23 27 8 0 14 5 14 10
0 6 9 10 20 10 11 0 20 -4 20 -9z m230 -1 c-20 -13 -60 -13 -60 0 0 6 17 10
38 10 27 0 33 -3 22 -10z m-670 -15 c-7 -9 -15 -13 -19 -10 -3 3 1 10 9 15 21
14 24 12 10 -5z m50 6 c0 -13 -81 -59 -116 -66 -20 -4 -14 2 22 19 28 14 57
32 64 41 14 17 30 20 30 6z m-100 -31 c-20 -13 -33 -13 -25 0 3 6 14 10 23 10
15 0 15 -2 2 -10z m324 1 c7 -10 -17 -21 -45 -21 -11 0 -18 -4 -14 -9 3 -5 1
-12 -5 -16 -5 -3 -10 2 -10 12 0 26 62 55 74 34z m-3014 -25 c0 -2 -9 -6 -20
-9 -11 -3 -18 -1 -14 4 5 9 34 13 34 5z m230 -36 c0 -5 -5 -10 -11 -10 -5 0
-7 5 -4 10 3 6 8 10 11 10 2 0 4 -4 4 -10z m3240 -30 c0 -5 -5 -10 -11 -10 -5
0 -7 5 -4 10 3 6 8 10 11 10 2 0 4 -4 4 -10z m-3586 -44 c-3 -9 -10 -16 -15
-16 -14 0 -11 28 4 33 16 6 19 3 11 -17z m206 9 c0 -8 -7 -15 -15 -15 -26 0
-18 20 13 29 1 1 2 -6 2 -14z m3375 5 c-3 -5 -14 -10 -23 -10 -15 0 -15 2 -2
10 20 13 33 13 25 0z m-3305 -20 c0 -5 -4 -10 -10 -10 -5 0 -10 5 -10 10 0 6
5 10 10 10 6 0 10 -4 10 -10z m3275 -100 c-3 -5 -12 -7 -20 -3 -21 7 -19 13 6
13 11 0 18 -4 14 -10z m155 -170 c0 -5 -7 -10 -15 -10 -8 0 -15 5 -15 10 0 6
7 10 15 10 8 0 15 -4 15 -10z m-4180 -269 c0 -34 -19 -91 -30 -91 -15 0 -16
84 -1 107 17 28 31 21 31 -16z m-83 -128 c-11 -3 -16 -11 -13 -19 3 -8 1 -14
-3 -14 -5 0 -11 6 -14 14 -6 15 7 25 33 24 9 0 8 -2 -3 -5z m-37 -55 c0 -13
-23 -5 -28 10 -2 7 2 10 12 6 9 -3 16 -11 16 -16z m-128 -130 c-7 -7 -12 -8
-12 -2 0 14 12 26 19 19 2 -3 -1 -11 -7 -17z m-362 -248 c0 -5 -4 -10 -10 -10
-5 0 -10 5 -10 10 0 6 5 10 10 10 6 0 10 -4 10 -10z m-2 -250 c11 -18 9 -21
-14 -30 -26 -10 -44 -6 -44 11 0 5 12 7 28 3 22 -5 25 -4 15 7 -7 7 -13 17
-13 21 0 15 15 8 28 -12z m3101 -68 c-17 -7 -9 -20 9 -15 10 2 26 -5 36 -16
24 -26 46 -27 46 -3 0 28 10 33 39 18 49 -25 76 -35 118 -41 50 -8 70 -32 45
-53 -11 -8 -5 -7 15 3 29 14 36 14 69 0 47 -20 51 -19 29 5 -10 11 -13 20 -7
20 6 0 14 -4 17 -10 3 -5 11 -10 18 -10 8 0 8 3 -1 12 -18 18 -14 28 11 28 16
0 18 3 8 9 -8 5 -9 11 -3 15 14 8 42 -3 42 -18 0 -18 -69 -85 -88 -85 -14 -1
-62 -7 -82 -10 -3 -1 8 -10 24 -20 19 -13 39 -18 57 -14 15 3 30 0 33 -6 4 -6
12 -9 17 -6 10 7 39 -18 39 -33 0 -5 -11 -14 -25 -20 -14 -6 -25 -16 -25 -21
0 -16 43 -18 68 -3 15 10 22 11 22 3 0 -6 -7 -14 -15 -17 -8 -4 -15 -15 -15
-25 0 -21 -16 -26 -23 -6 -3 6 -6 7 -6 1 -1 -5 5 -18 12 -28 12 -17 15 -16 46
13 34 32 61 40 61 20 0 -16 62 -79 78 -79 7 0 11 -4 8 -8 -2 -4 20 -21 50 -36
93 -49 94 -100 4 -111 -8 -1 -24 -6 -34 -10 -11 -5 -31 -4 -47 2 -29 11 -44 5
-31 -12 4 -6 14 -12 22 -14 8 -2 30 -7 49 -11 49 -12 57 -24 37 -54 -14 -23
-14 -26 -1 -26 8 0 15 7 15 16 0 19 24 44 42 44 7 0 30 -5 50 -10 29 -9 37
-16 40 -38 2 -21 9 -28 31 -30 15 -2 27 -9 27 -18 0 -8 6 -14 14 -14 18 0 29
27 13 33 -7 2 -9 8 -5 12 5 5 16 1 26 -8 10 -10 26 -17 34 -17 9 0 19 -7 22
-16 4 -9 13 -14 21 -10 21 8 68 -12 60 -25 -4 -6 -18 -8 -30 -5 -21 5 -44 -8
-33 -19 5 -6 102 16 113 26 14 11 88 15 103 5 7 -4 12 -11 12 -17 0 -12 -37
-12 -45 1 -3 6 -13 10 -22 10 -13 0 -13 -3 -3 -15 10 -12 9 -15 -4 -15 -10 0
-14 -4 -11 -10 3 -5 15 -10 26 -10 11 0 27 -6 35 -14 7 -8 23 -12 34 -9 15 4
22 -2 30 -21 10 -28 30 -27 30 1 0 20 48 10 70 -15 8 -9 23 -23 33 -31 18 -14
18 -13 11 24 -7 37 -6 38 17 32 13 -4 32 -7 42 -7 11 0 17 -8 17 -25 0 -22 4
-25 28 -23 15 1 34 -2 41 -7 11 -6 13 -3 9 13 -9 33 8 36 31 6 26 -33 27 -64
4 -64 -17 -1 -17 -1 0 -11 9 -5 17 -17 17 -25 0 -8 4 -13 9 -10 10 7 63 -88
54 -98 -3 -3 3 -6 15 -6 12 0 22 -5 22 -11 0 -7 12 -10 29 -7 31 5 41 -9 41
-58 0 -11 9 -29 20 -39 11 -10 20 -23 20 -29 0 -6 12 -22 25 -35 14 -13 25
-29 25 -37 0 -19 43 -85 69 -107 31 -25 46 -11 21 20 -11 14 -20 30 -20 36 0
5 16 -10 35 -34 40 -50 43 -63 15 -54 -25 8 -26 -11 -1 -24 10 -6 24 -25 31
-43 8 -18 31 -69 52 -112 21 -44 38 -83 38 -88 0 -5 10 -24 23 -41 23 -32 71
-139 102 -227 36 -103 44 -144 36 -208 -6 -49 -5 -65 6 -69 10 -4 12 -31 7
-132 -7 -124 -6 -128 19 -171 15 -25 33 -60 42 -79 8 -19 21 -39 28 -45 11 -9
12 -31 5 -106 -5 -52 -11 -183 -13 -290 -3 -107 -9 -242 -13 -300 -6 -96 -9
-105 -27 -104 -11 1 -101 25 -200 54 -170 50 -203 65 -269 121 -26 23 45 -8
77 -33 21 -17 40 -28 43 -26 2 3 -3 21 -11 41 -14 34 -13 41 7 38 4 0 5 6 2
14 -4 8 -10 15 -15 15 -5 0 -9 8 -9 18 0 9 -11 33 -23 52 -13 19 -32 51 -41
71 -17 36 -92 117 -100 108 -3 -3 10 -22 29 -42 19 -21 38 -50 42 -65 3 -15
13 -37 21 -49 17 -27 6 -30 -20 -6 -12 11 -18 12 -18 4 0 -7 14 -26 31 -42 39
-36 22 -38 -21 -3 -17 15 -29 33 -26 40 3 8 -8 20 -30 30 -41 20 -51 33 -33
45 11 6 10 12 -5 28 -9 10 -19 26 -20 35 -1 8 -16 33 -34 55 -22 28 -37 38
-51 34 -13 -3 -21 2 -26 16 -7 22 -70 65 -83 57 -13 -8 -82 53 -77 67 3 7 -7
20 -22 29 -16 9 -44 31 -63 48 -31 26 -39 29 -68 21 -18 -6 -30 -6 -27 -1 5 9
-44 34 -87 45 -29 7 -39 -7 -15 -22 6 -4 18 -16 26 -26 14 -17 13 -17 -15 -6
-16 7 -36 20 -44 29 -9 9 -27 19 -40 22 -14 3 -33 9 -42 13 -28 11 -21 -10 7
-23 43 -20 30 -37 -28 -37 -28 0 -57 4 -63 7 -6 4 -29 11 -51 16 -34 8 -42 6
-55 -10 -16 -20 -17 -20 -68 6 -60 30 -67 32 -45 10 22 -23 12 -28 -27 -14
-65 24 -179 40 -198 27 -14 -8 -28 -8 -56 1 -21 6 -40 9 -43 5 -4 -3 0 -8 7
-10 25 -9 11 -24 -22 -21 -23 1 -47 -7 -75 -25 l-41 -27 0 31 0 32 -33 -37
c-32 -34 -67 -48 -67 -26 0 6 -5 10 -10 10 -6 0 -9 -6 -8 -12 2 -9 -9 -12 -35
-10 -33 3 -38 1 -35 -15 3 -16 -5 -18 -62 -21 -55 -3 -67 0 -81 17 -18 22 -29
18 -29 -10 0 -12 -5 -16 -15 -13 -10 4 -15 0 -15 -11 0 -12 5 -15 16 -11 13 5
15 0 9 -36 -10 -61 -28 -85 -22 -30 3 23 1 42 -4 42 -5 0 -9 6 -9 14 0 7 -7
19 -15 26 -13 11 -15 7 -15 -23 0 -43 -16 -57 -30 -25 -7 18 -8 12 -4 -24 7
-53 -7 -92 -16 -43 -3 17 -10 30 -16 30 -7 0 -21 11 -32 25 l-20 25 -8 -52
c-6 -51 -7 -53 -37 -50 -25 2 -32 -3 -36 -21 -3 -13 -10 -24 -16 -25 -5 -1 -8
-10 -7 -19 3 -19 -13 -24 -23 -8 -4 6 -10 8 -15 5 -10 -6 17 -104 35 -125 7
-8 15 -28 19 -43 9 -39 26 -24 27 26 1 24 4 32 6 19 4 -18 9 -21 25 -16 19 6
20 3 15 -24 -4 -18 -1 -37 8 -48 19 -25 19 -44 0 -44 -9 0 -20 12 -26 26 -13
35 -23 24 -14 -15 8 -37 29 -55 67 -57 23 -1 28 2 23 15 -4 9 -9 29 -12 45 -5
25 -4 28 11 23 10 -4 22 -7 27 -7 4 0 6 -7 3 -15 -4 -8 7 -28 25 -46 22 -21
30 -37 26 -50 -4 -13 -2 -19 9 -19 22 0 29 -17 16 -40 -9 -16 -8 -20 6 -20 10
0 14 -3 11 -7 -4 -3 1 -12 11 -19 22 -17 1 -19 -48 -3 -19 6 -105 15 -190 19
-85 4 -177 12 -205 16 l-50 8 35 6 c30 6 32 8 15 15 -11 5 -30 19 -43 32 -13
13 -27 23 -32 23 -6 0 -10 6 -10 14 0 8 -9 18 -20 21 -29 9 -25 25 8 26 15 1
20 3 10 6 -14 4 -15 8 -6 29 10 20 9 27 -3 35 -10 6 -5 9 19 9 32 0 32 1 15
19 -21 21 -73 34 -73 18 0 -18 -16 6 -28 41 -7 19 -8 42 -3 55 9 25 4 47 -10
47 -6 0 -7 -4 -4 -10 3 -5 -3 -10 -13 -10 -12 0 -22 9 -26 23 -3 13 -22 32
-43 43 -21 11 -45 33 -53 49 -8 17 -23 36 -32 43 -21 15 -23 38 -5 45 23 8 -2
20 -53 25 -36 3 -54 10 -61 23 -5 11 -16 19 -24 19 -23 0 -28 20 -9 35 22 16
12 23 -44 28 -17 2 -35 7 -39 10 -3 4 -17 7 -29 7 -13 0 -28 9 -34 19 -13 25
-47 36 -65 21 -20 -17 -68 -2 -59 19 15 37 17 54 6 47 -7 -4 -24 -1 -39 7 -46
23 -95 39 -158 49 -39 7 -64 17 -73 29 -7 11 -17 17 -22 14 -5 -3 -18 3 -30
15 -22 22 -42 25 -70 10 -22 -12 -50 -3 -50 16 0 8 -10 14 -23 14 -13 0 -28 5
-35 12 -8 8 -15 8 -25 0 -19 -16 -99 -11 -93 5 7 18 -2 19 -84 7 -78 -10 -331
-11 -353 -1 -13 6 -24 4 -36 -7 -10 -9 -23 -16 -30 -16 -7 0 -10 -4 -7 -9 3
-5 -7 -11 -22 -14 -15 -3 -50 -26 -77 -51 -27 -25 -54 -46 -61 -46 -7 0 -45
-34 -85 -75 -40 -41 -77 -75 -84 -75 -6 0 -26 -16 -45 -36 -19 -20 -48 -48
-64 -63 -16 -14 -44 -41 -62 -58 -18 -18 -37 -33 -43 -33 -6 0 -11 -7 -11 -15
0 -9 -5 -21 -10 -28 -41 -49 -69 -91 -65 -97 3 -4 -8 -10 -23 -13 -16 -3 -46
-22 -67 -41 -40 -37 -43 -60 -4 -33 11 9 26 14 33 11 6 -2 16 6 21 18 6 13 18
24 27 26 15 3 15 0 5 -28 -7 -18 -21 -33 -34 -36 -21 -6 -57 -63 -47 -74 3 -3
14 5 24 18 27 33 35 27 10 -8 -12 -17 -26 -28 -31 -25 -5 4 -9 -1 -9 -10 0 -8
-10 -20 -22 -25 -23 -9 -297 -70 -317 -70 -6 0 -9 68 -7 193 3 183 5 195 29
243 14 27 30 77 36 109 6 33 18 80 26 105 8 25 17 62 20 83 6 35 9 38 30 33
22 -6 24 -4 16 16 -4 13 -5 34 -2 47 7 27 31 41 32 19 0 -7 4 -4 8 7 5 12 4
23 -2 27 -6 4 -3 25 9 60 11 34 21 100 25 183 19 336 25 364 93 440 20 22 36
45 36 52 0 7 6 16 13 20 20 13 57 71 57 90 0 10 7 31 15 47 8 15 15 36 15 46
0 28 11 51 22 44 14 -9 68 56 68 83 0 13 5 23 10 23 6 0 10 6 10 14 0 8 7 16
15 20 17 6 21 46 5 46 -5 0 -10 -5 -10 -12 0 -6 -3 -9 -6 -6 -3 4 2 20 11 38
9 17 15 43 14 58 -4 53 1 70 18 68 14 -1 17 6 15 30 -3 25 1 32 18 37 12 3 20
11 19 19 -1 7 -1 27 0 43 1 21 4 26 10 16 5 -7 14 -10 20 -7 15 10 14 36 -1
36 -8 0 -6 4 3 10 15 9 20 21 30 65 2 6 13 18 26 28 13 10 23 26 23 34 0 19
28 53 44 53 12 0 43 37 61 73 7 14 20 22 37 22 15 0 36 10 48 23 24 25 35 28
26 7 -4 -10 5 -8 29 7 18 13 31 26 29 30 -3 4 6 13 20 20 14 6 26 15 26 20 0
4 7 8 15 8 20 0 19 -16 -1 -24 -9 -4 -14 -10 -10 -14 4 -4 19 7 32 23 13 17
24 24 24 17 0 -9 13 -12 39 -10 22 1 39 4 39 7 -4 45 2 51 50 51 50 0 74 13
65 35 -2 7 5 16 16 20 12 4 18 12 14 21 -3 7 0 14 6 14 6 0 11 -7 11 -15 0
-22 13 -19 47 13 16 15 28 33 25 41 -3 9 0 11 7 6 8 -4 14 1 18 14 4 17 13 21
44 21 44 0 49 -11 17 -33 -31 -21 -17 -31 17 -13 16 8 32 13 37 10 13 -8 9 31
-4 44 -9 9 -8 12 5 12 9 0 20 7 25 16 13 22 58 11 65 -16 3 -11 10 -20 17 -20
6 0 8 5 4 11 -3 6 -1 15 7 19 10 7 10 11 -1 24 -17 21 -7 30 19 17 16 -9 22
-7 33 8 13 18 41 26 81 23 11 -1 17 -10 17 -27 0 -14 4 -25 10 -25 5 0 7 6 4
13 -6 17 31 51 46 42 7 -4 16 -2 20 5 6 10 15 9 43 -1 30 -11 41 -10 62 1 14
7 25 19 25 27 0 7 7 13 16 13 10 0 14 6 11 14 -6 15 43 56 68 56 8 0 24 5 34
12 23 14 53 4 45 -17 -4 -8 1 -17 10 -21 9 -3 13 -11 9 -17 -4 -7 0 -8 11 -4
10 4 23 7 29 7 6 0 2 7 -9 15 -19 14 -18 14 4 15 14 0 22 -6 22 -17 0 -10 7
-26 14 -36 12 -15 21 -16 86 -7 48 7 78 17 89 29 16 18 71 34 71 21 0 -15 90
10 110 30 11 11 23 20 28 21 46 4 89 10 99 14 7 2 22 -5 33 -17 l20 -22 0 32
c0 31 2 32 40 32 29 0 40 -4 40 -15 0 -8 5 -15 10 -15 6 0 10 5 10 10 0 6 10
1 22 -10 13 -11 34 -23 48 -26 14 -2 43 -9 65 -15 22 -6 70 -11 108 -13 59 -2
67 0 67 16 0 10 7 18 16 18 9 0 12 5 8 12 -4 7 -3 8 5 4 17 -11 63 2 55 15 -3
6 -18 10 -32 9 -49 -4 -57 -1 -44 12 9 9 8 16 -5 31 -17 18 -17 19 2 30 58 34
59 34 86 7 15 -14 23 -26 18 -28z m-3169 38 c0 -5 -4 -10 -10 -10 -5 0 -10 5
-10 10 0 6 5 10 10 10 6 0 10 -4 10 -10z m2945 -40 c3 -5 -1 -10 -9 -10 -9 0
-16 5 -16 10 0 6 4 10 9 10 6 0 13 -4 16 -10z m385 0 c0 -5 -2 -10 -4 -10 -3
0 -8 5 -11 10 -3 6 -1 10 4 10 6 0 11 -4 11 -10z m-306 -16 c18 -46 -7 -84
-55 -84 -31 0 -39 14 -13 24 8 3 13 10 10 15 -4 5 -2 21 4 35 11 29 44 35 54
10z m-614 -28 c0 -3 -4 -8 -10 -11 -5 -3 -10 -1 -10 4 0 6 5 11 10 11 6 0 10
-2 10 -4z m10 -36 c0 -5 -2 -10 -4 -10 -3 0 -8 5 -11 10 -3 6 -1 10 4 10 6 0
11 -4 11 -10z m1350 -88 c0 -12 -31 -32 -48 -32 -5 0 -12 10 -15 22 -5 16 -9
19 -19 11 -15 -13 -68 -5 -68 9 0 5 16 25 36 44 l37 34 38 -39 c22 -21 39 -44
39 -49z m-3890 59 c0 -11 -4 -23 -10 -26 -6 -4 -10 5 -10 19 0 14 5 26 10 26
6 0 10 -9 10 -19z m105 -21 c3 -5 2 -10 -4 -10 -5 0 -13 5 -16 10 -3 6 -2 10
4 10 5 0 13 -4 16 -10z m-37 -27 c-2 -11 2 -17 10 -15 8 1 12 -3 9 -10 -4 -14
-36 -12 -51 2 -5 6 -4 15 4 25 17 20 32 19 28 -2z m-68 -88 c0 -8 -7 -15 -16
-15 -9 0 -14 -6 -11 -12 2 -7 12 -12 21 -12 24 3 14 -20 -11 -24 -22 -3 -38
22 -26 41 4 7 8 15 9 20 1 4 2 9 3 12 3 12 31 3 31 -10z m3924 -21 c9 -3 16
-13 16 -21 0 -10 -6 -13 -16 -9 -9 3 -22 6 -30 6 -8 0 -14 7 -14 15 0 16 17
19 44 9z m-2604 -104 c0 -5 -7 -10 -15 -10 -8 0 -15 5 -15 10 0 6 7 10 15 10
8 0 15 -4 15 -10z m-450 -224 c0 -3 -4 -8 -10 -11 -5 -3 -10 -1 -10 4 0 6 5
11 10 11 6 0 10 -2 10 -4z m3610 -16 c0 -5 -4 -10 -10 -10 -5 0 -10 5 -10 10
0 6 5 10 10 10 6 0 10 -4 10 -10z m-74 -84 c3 -8 15 -11 30 -8 29 5 31 -9 3
-26 -18 -12 -23 -10 -40 9 -10 12 -19 26 -19 31 0 13 20 9 26 -6z m492 -104
c6 -18 -15 -14 -22 4 -4 10 -1 14 6 12 6 -2 14 -10 16 -16z m-5168 -21 c0 -5
-7 -14 -15 -21 -16 -14 -18 -10 -9 14 6 17 24 22 24 7z m5180 -11 c0 -5 -5
-10 -11 -10 -5 0 -7 5 -4 10 3 6 8 10 11 10 2 0 4 -4 4 -10z m-5223 -62 c-3
-8 -6 -5 -6 6 -1 11 2 17 5 13 3 -3 4 -12 1 -19z m5378 -138 c16 -16 26 -32
24 -35 -8 -7 -47 23 -59 46 -16 28 2 23 35 -11z m-4580 -60 c-3 -5 -11 -10
-16 -10 -6 0 -7 5 -4 10 3 6 11 10 16 10 6 0 7 -4 4 -10z m-895 -129 c0 -13
-29 -35 -37 -28 -7 8 15 37 28 37 5 0 9 -4 9 -9z m6060 -194 c0 -5 -4 -5 -10
-2 -5 3 -10 14 -10 23 0 15 2 15 10 2 5 -8 10 -19 10 -23z m400 -107 c0 -5 -4
-10 -9 -10 -6 0 -13 5 -16 10 -3 6 1 10 9 10 9 0 16 -4 16 -10z m-6613 -142
c-3 -7 -5 -2 -5 12 0 14 2 19 5 13 2 -7 2 -19 0 -25z m-37 -258 c0 -5 -5 -10
-11 -10 -5 0 -7 5 -4 10 3 6 8 10 11 10 2 0 4 -4 4 -10z m2193 -530 c6 -22
-12 -27 -31 -8 -17 17 -15 28 7 28 10 0 21 -9 24 -20z m-2203 -120 c0 -11 -7
-20 -15 -20 -18 0 -19 12 -3 28 16 16 18 15 18 -8z m1400 -15 c-7 -9 -15 -13
-18 -10 -3 2 1 11 8 20 7 9 15 13 18 10 3 -2 -1 -11 -8 -20z m-55 -65 c-16
-16 -33 -30 -39 -30 -9 0 53 59 63 60 3 0 -8 -13 -24 -30z m4046 -180 l24 -20
-32 16 c-33 15 -41 24 -24 24 5 0 19 -9 32 -20z m-5381 -150 c0 -5 -5 -10 -11
-10 -5 0 -7 5 -4 10 3 6 8 10 11 10 2 0 4 -4 4 -10z m5625 -64 c16 -19 32 -33
36 -30 12 7 22 -17 11 -28 -7 -7 -16 -4 -28 10 -67 72 -74 82 -56 82 5 0 21
-15 37 -34z m1045 30 c0 -3 -4 -8 -10 -11 -5 -3 -10 -1 -10 4 0 6 5 11 10 11
6 0 10 -2 10 -4z m-5705 -42 c-23 -17 -32 -10 -15 11 7 8 17 12 23 8 6 -4 3
-11 -8 -19z m2685 -14 c0 -5 -2 -10 -4 -10 -3 0 -8 5 -11 10 -3 6 -1 10 4 10
6 0 11 -4 11 -10z m-3594 -67 c-11 -11 -17 4 -9 23 7 18 8 18 11 1 2 -10 1
-21 -2 -24z m3694 -27 c0 -8 9 -16 20 -19 33 -8 23 -27 -15 -27 -36 0 -44 15
-29 54 7 18 24 12 24 -8z m1920 -6 c0 -5 -2 -10 -4 -10 -3 0 -8 5 -11 10 -3 6
-1 10 4 10 6 0 11 -4 11 -10z m-2400 -25 c0 -8 -4 -15 -10 -15 -5 0 -10 7 -10
15 0 8 5 15 10 15 6 0 10 -7 10 -15z m640 -25 c0 -5 -2 -10 -4 -10 -3 0 -8 5
-11 10 -3 6 -1 10 4 10 6 0 11 -4 11 -10z m1970 -11 c0 -6 -4 -7 -10 -4 -5 3
-10 11 -10 16 0 6 5 7 10 4 6 -3 10 -11 10 -16z m-5814 -26 c-11 -11 -19 6
-11 24 8 17 8 17 12 0 3 -10 2 -21 -1 -24z m5063 16 c-28 -5 -63 -5 -85 0 -33
8 -26 9 46 9 78 0 81 -1 39 -9z m-182 -5 c-3 -3 -12 -4 -19 -1 -8 3 -5 6 6 6
11 1 17 -2 13 -5z m882 -19 c16 -17 19 -25 9 -25 -8 0 -25 11 -38 25 -16 17
-19 25 -9 25 8 0 25 -12 38 -25z m-2563 -12 c-10 -10 -19 5 -10 18 6 11 8 11
12 0 2 -7 1 -15 -2 -18z m-3149 2 c9 -24 -1 -27 -15 -5 -8 13 -8 20 -2 20 6 0
13 -7 17 -15z m1940 2 c3 -4 19 -7 35 -7 16 0 48 -4 71 -9 23 -5 69 -15 102
-21 92 -19 280 -79 272 -87 -3 -2 -29 5 -58 16 -30 10 -90 27 -134 36 -44 9
-93 21 -110 26 -16 4 -55 10 -85 14 -30 3 -73 8 -95 11 -22 3 -62 8 -90 11
-27 4 -140 7 -250 7 -192 0 -290 -11 -385 -43 -14 -4 -52 -16 -85 -26 -33 -9
-67 -21 -75 -26 -8 -5 -35 -18 -60 -30 -25 -12 -49 -28 -53 -35 -4 -8 -14 -14
-22 -14 -17 0 -57 -49 -49 -61 3 -5 17 -9 31 -9 21 0 23 -2 13 -15 -6 -8 -9
-18 -6 -23 3 -5 -6 -14 -20 -21 -19 -8 -25 -17 -21 -31 3 -12 -1 -24 -10 -29
-22 -12 -8 -29 20 -24 13 3 29 -2 35 -10 10 -12 8 -16 -14 -21 -15 -4 -47 -27
-71 -52 -25 -24 -48 -44 -53 -44 -4 0 -6 37 -3 82 4 55 3 79 -4 75 -6 -4 -13
-21 -16 -39 -33 -188 -37 -229 -28 -245 8 -15 11 -10 21 27 14 57 37 91 49 71
12 -18 45 -10 49 13 2 10 12 26 23 37 22 22 54 18 107 -13 l32 -20 0 21 c0 12
-6 21 -14 21 -26 0 -10 35 23 49 19 9 30 20 27 28 -4 9 5 13 28 13 22 0 36 -6
40 -16 4 -9 9 -14 13 -11 13 14 32 -15 27 -42 -4 -18 2 -42 15 -67 25 -46 26
-60 6 -68 -17 -6 -20 -47 -5 -74 5 -9 16 -33 25 -53 9 -20 25 -46 35 -57 11
-12 20 -26 20 -31 0 -5 9 -13 20 -16 11 -3 20 -13 20 -21 0 -8 6 -14 14 -14 7
0 19 -7 26 -15 12 -14 15 -14 30 0 13 12 23 13 43 6 33 -13 44 -31 18 -31 -11
0 -23 -4 -26 -10 -4 -6 8 -10 29 -10 34 0 61 -20 38 -28 -24 -8 -11 -22 19
-22 19 0 37 7 45 18 12 15 12 14 7 -8 -3 -14 -11 -28 -17 -32 -18 -12 38 -2
62 11 23 12 25 10 22 -27 -1 -22 2 -23 50 -21 42 2 54 -1 63 -16 6 -11 21 -30
33 -42 13 -13 18 -23 12 -23 -6 0 -3 -9 7 -20 23 -25 68 -26 86 -1 8 11 31 21
54 24 22 3 32 3 23 1 -27 -8 -22 -24 7 -24 14 0 25 4 25 9 0 13 30 22 43 14 7
-4 21 -7 32 -8 13 0 20 -7 20 -20 0 -11 7 -26 15 -32 12 -10 12 -14 2 -21 -13
-9 -6 -42 9 -42 5 0 9 -9 9 -20 0 -11 7 -20 15 -20 8 0 15 6 15 14 0 22 38 30
56 12 20 -21 48 -20 69 0 9 9 19 13 23 9 4 -4 1 -10 -5 -12 -20 -7 -15 -23 7
-23 11 0 23 -7 26 -15 4 -8 13 -15 21 -15 13 0 14 -7 8 -37 -4 -21 -7 -50 -7
-65 1 -16 -3 -28 -8 -28 -5 0 -7 -13 -4 -30 5 -21 2 -31 -9 -36 -15 -5 -17
-27 -4 -40 4 -4 -1 -13 -11 -21 -16 -12 -16 -14 1 -24 21 -12 13 -29 -14 -29
-10 0 -24 -9 -31 -20 -17 -26 -26 -25 -30 3 -4 31 -57 38 -65 7 -5 -19 -10
-20 -51 -14 -40 6 -47 4 -63 -17 -15 -20 -20 -22 -44 -11 -31 15 -121 16 -130
2 -4 -6 15 -10 48 -10 40 0 56 -4 61 -15 3 -8 15 -15 26 -15 11 0 20 -7 20
-15 0 -13 -4 -14 -21 -5 -16 9 -26 8 -44 -4 -14 -9 -35 -16 -49 -16 -29 0 -44
-18 -22 -26 23 -9 20 -24 -4 -24 -11 0 -20 -4 -20 -10 0 -13 -74 -32 -78 -20
-4 11 -35 13 -46 3 -3 -4 6 -12 21 -18 33 -14 102 -2 119 20 6 8 16 15 23 15
15 0 14 -27 -1 -33 -22 -9 63 -7 149 3 117 13 238 57 352 128 19 11 39 18 44
15 6 -3 7 -1 3 5 -7 12 48 55 58 45 4 -4 4 1 0 11 -6 15 -4 17 6 11 10 -6 12
-4 7 8 -3 9 -1 19 5 23 7 5 8 2 3 -7 -21 -37 61 65 106 134 53 79 74 97 44 35
-16 -31 -91 -137 -105 -148 -4 -3 -15 -21 -26 -40 -10 -19 -24 -38 -30 -42 -7
-4 -30 -22 -52 -40 -22 -18 -51 -41 -64 -52 -37 -30 -178 -95 -241 -111 -235
-61 -492 -59 -748 5 -88 22 -241 89 -311 138 -143 99 -276 291 -342 497 -57
173 -71 273 -71 495 0 230 5 254 66 376 63 124 115 173 250 239 115 56 307
107 449 119 74 6 499 0 507 -7z m3663 -24 c19 -9 30 -17 24 -19 -12 -5 -104
32 -104 41 0 7 31 -1 80 -22z m70 -3 c0 -5 -2 -10 -4 -10 -3 0 -8 5 -11 10 -3
6 -1 10 4 10 6 0 11 -4 11 -10z m-3970 -30 c0 -5 -4 -10 -10 -10 -5 0 -10 5
-10 10 0 6 5 10 10 10 6 0 10 -4 10 -10z m84 -2 c-3 -4 -12 -8 -20 -8 -8 0
-14 4 -14 8 0 4 9 8 19 8 11 0 17 -4 15 -8z m1983 -70 c-3 -7 -5 -2 -5 12 0
14 2 19 5 13 2 -7 2 -19 0 -25z m1454 2 c215 -33 332 -71 481 -157 177 -102
238 -229 238 -497 0 -223 -37 -435 -108 -612 -41 -102 -130 -239 -211 -326
-55 -59 -196 -168 -218 -168 -5 0 -25 -11 -45 -25 -20 -14 -45 -25 -54 -25
-10 0 -25 -6 -33 -14 -38 -35 -481 -72 -606 -51 -136 22 -334 72 -400 101 -41
18 -210 194 -267 279 -82 122 -159 309 -191 465 -40 192 -47 401 -14 422 9 6
9 10 -3 18 -11 7 -12 12 -3 21 9 9 13 2 18 -27 11 -66 13 -70 15 -34 1 19 5
44 10 55 l9 20 0 -20 c1 -15 3 -17 10 -6 15 23 71 -7 71 -39 0 -14 9 -31 20
-38 11 -7 20 -22 20 -33 0 -34 43 -117 63 -123 13 -3 16 -11 12 -28 -8 -34 15
-70 55 -83 19 -6 39 -21 45 -33 12 -27 25 -28 25 -2 0 11 4 20 9 20 13 0 33
-27 30 -42 -6 -25 21 -59 40 -53 13 4 24 -3 35 -20 28 -42 161 -97 161 -66 0
5 3 12 7 16 4 4 4 20 1 36 -4 24 -1 30 18 37 18 7 30 4 51 -11 22 -17 32 -18
55 -9 15 6 46 11 68 11 22 0 85 9 139 20 97 20 110 28 137 75 8 13 18 17 37
13 20 -4 36 2 60 21 l33 27 -12 47 c-7 26 -10 50 -7 53 3 4 20 -1 38 -10 18
-9 34 -14 37 -12 5 6 -18 49 -32 59 -12 9 2 23 30 32 12 3 30 -2 45 -15 20
-17 21 -19 5 -14 -67 24 -94 7 -31 -19 43 -18 48 -26 50 -88 2 -44 7 -55 34
-78 18 -15 32 -32 32 -39 0 -25 23 -5 34 29 8 26 18 36 36 38 34 5 47 17 54
53 4 24 0 38 -20 65 -21 27 -23 34 -10 34 9 0 16 2 16 4 0 2 3 11 6 20 8 21
-25 22 -52 1 -16 -13 -17 -16 -4 -25 23 -15 6 -12 -26 5 -16 8 -28 18 -27 22
2 5 -6 8 -16 8 -11 0 -23 4 -28 9 -4 5 -3 6 5 2 6 -4 17 -4 22 -1 16 10 -8 35
-31 35 -21 0 -22 1 -13 24 7 19 40 20 74 2 21 -11 29 -10 53 3 15 8 27 18 27
22 0 5 -56 69 -98 112 -73 74 -253 214 -308 239 -29 13 -49 29 -46 36 2 7 -6
12 -20 12 -14 0 -28 3 -32 8 -4 4 -18 7 -29 7 -15 0 -21 5 -19 16 2 13 -13 18
-85 24 -49 5 -108 10 -133 11 -93 4 -88 2 -60 24 21 16 22 20 7 20 -39 0 -4
18 58 30 112 21 270 -9 405 -77 39 -19 73 -33 75 -31 8 7 -11 23 -47 40 -21
10 -38 22 -38 27 0 5 40 -12 90 -37 49 -25 92 -43 96 -40 8 9 -14 48 -27 48
-6 0 -23 8 -37 18 -15 10 -48 25 -75 32 -44 12 -73 30 -47 30 6 0 9 4 6 9 -6
9 -125 35 -132 28 -3 -3 -22 -1 -42 4 -20 5 -93 10 -162 10 -104 1 -118 3 -80
11 163 34 476 37 671 8z m-3255 -26 c6 -7 33 -18 59 -24 27 -6 54 -15 60 -19
5 -5 21 -11 35 -14 14 -2 54 -16 90 -29 56 -21 66 -28 76 -57 6 -18 17 -37 25
-42 23 -15 -5 -10 -77 12 -203 63 -279 74 -477 69 -49 -1 -72 3 -83 14 -8 9
-24 16 -35 16 -12 0 -17 4 -13 11 3 6 17 9 30 6 13 -2 24 0 24 4 0 5 7 9 15 9
8 0 15 7 15 16 0 11 8 15 28 13 15 -2 32 0 39 4 6 4 19 4 28 1 10 -4 21 -1 26
7 7 11 9 11 9 -3 0 -10 5 -18 10 -18 6 0 10 4 10 9 0 35 81 47 106 15z m567
-15 c45 -23 84 -44 87 -48 3 -4 21 -17 40 -28 20 -12 45 -32 58 -46 30 -31
102 -175 101 -201 0 -14 -5 -9 -14 16 -20 53 -78 141 -111 167 -16 13 -49 41
-72 63 -24 23 -78 58 -120 79 -42 22 -70 39 -63 39 7 0 50 -18 94 -41z m-1558
11 c3 -5 1 -10 -4 -10 -6 0 -11 5 -11 10 0 6 2 10 4 10 3 0 8 -4 11 -10z
m3445 6 c0 -2 -7 -7 -16 -10 -8 -3 -12 -2 -9 4 6 10 25 14 25 6z m-3477 -73
c-13 -2 -33 -2 -45 0 -13 2 -3 4 22 4 25 0 35 -2 23 -4z m667 -19 c0 -9 -9
-18 -21 -21 -12 -3 -18 -11 -15 -19 6 -17 -28 -41 -75 -54 -27 -7 -39 -17 -43
-35 -4 -14 -11 -25 -17 -25 -6 0 -27 -19 -48 -42 -48 -53 -61 -36 -15 21 19
24 34 49 34 55 0 16 80 106 94 106 6 0 3 -7 -7 -14 -10 -8 -14 -17 -9 -20 5
-3 12 -2 16 2 4 4 13 7 19 7 7 1 11 6 10 13 -2 7 8 12 21 12 13 0 29 7 36 15
16 19 20 19 20 -1z m4655 -13 c10 -17 -11 -21 -31 -6 -18 14 -18 14 3 15 12 0
24 -4 28 -9z m-5298 -17 c-3 -3 -12 -4 -19 -1 -8 3 -5 6 6 6 11 1 17 -2 13 -5z
m103 -24 c0 -5 -6 -10 -14 -10 -8 0 -18 5 -21 10 -3 6 3 10 14 10 12 0 21 -4
21 -10z m5340 -22 c0 -5 -4 -8 -10 -8 -5 0 -10 10 -10 23 0 18 2 19 10 7 5 -8
10 -18 10 -22z m-5290 -28 c0 -5 3 -15 6 -24 4 -12 0 -16 -16 -16 -19 0 -20 2
-10 15 11 13 8 15 -13 15 -33 0 -44 17 -15 22 27 5 48 -1 48 -12z m985 -80 c0
-22 -29 -18 -33 3 -3 14 1 18 15 15 10 -2 18 -10 18 -18z m-445 -40 c0 -5 -5
-10 -11 -10 -5 0 -7 5 -4 10 3 6 8 10 11 10 2 0 4 -4 4 -10z m638 -70 c42 -41
43 -43 36 -88 -10 -68 -35 -94 -107 -114 -77 -21 -327 -35 -327 -18 0 7 20 10
58 9 69 -2 115 16 172 68 51 45 79 102 80 159 0 67 4 67 88 -16z m1572 45 c0
-8 -4 -15 -10 -15 -5 0 -7 7 -4 15 4 8 8 15 10 15 2 0 4 -7 4 -15z m-2205 -6
c4 -6 13 -8 20 -5 9 3 20 -16 34 -62 17 -56 28 -74 71 -112 64 -56 66 -75 8
-65 -24 4 -55 7 -70 6 -16 0 -28 4 -28 8 0 5 -27 20 -60 34 -33 15 -60 31 -60
36 0 5 -9 11 -19 14 -34 8 -72 90 -43 93 6 1 17 2 22 3 6 0 15 12 20 26 8 21
13 24 28 16 12 -6 23 -5 37 5 23 17 32 18 40 3z m3030 -19 c-3 -5 -10 -10 -16
-10 -5 0 -9 5 -9 10 0 6 7 10 16 10 8 0 12 -4 9 -10z m285 -90 c0 -13 1 -13
10 0 9 13 13 11 30 -10 11 -14 20 -29 20 -34 0 -5 15 -22 33 -37 17 -16 26
-28 20 -29 -7 0 -13 5 -13 10 0 20 -38 9 -81 -24 -24 -18 -61 -39 -82 -46 -20
-6 -35 -16 -32 -21 4 -5 -3 -9 -14 -9 -11 0 -37 -11 -57 -25 -20 -14 -43 -25
-50 -25 -7 0 -25 -5 -39 -12 -22 -10 -23 -13 -11 -27 13 -14 13 -19 0 -36 -15
-20 -15 -20 -30 -1 -8 11 -12 28 -9 37 7 21 -4 29 -50 33 -68 5 -59 24 26 57
84 31 141 89 163 167 9 32 16 66 16 76 0 27 23 14 42 -23 16 -32 17 -32 28
-11 9 16 9 25 1 33 -6 6 -11 17 -11 24 0 19 89 -48 90 -67z m-1176 -39 c-4
-17 -9 -30 -11 -27 -3 2 -2 19 2 36 4 17 9 30 11 27 2 -2 1 -18 -2 -36z m13
-63 c-3 -8 -6 -5 -6 6 -1 11 2 17 5 13 3 -3 4 -12 1 -19z m1363 -28 c0 -5 -7
-7 -15 -4 -8 4 -12 10 -9 15 6 11 24 2 24 -11z m-3732 -71 c-2 -6 -8 -10 -13
-10 -5 0 -11 4 -13 10 -2 6 4 11 13 11 9 0 15 -5 13 -11z m52 -28 c0 -6 -4
-13 -10 -16 -5 -3 -10 1 -10 9 0 9 5 16 10 16 6 0 10 -4 10 -9z m3060 -11 c0
-5 -4 -10 -10 -10 -5 0 -10 5 -10 10 0 6 5 10 10 10 6 0 10 -4 10 -10z m-3025
-10 c3 -5 1 -10 -4 -10 -6 0 -11 5 -11 10 0 6 2 10 4 10 3 0 8 -4 11 -10z
m100 -20 c3 -5 2 -10 -4 -10 -5 0 -13 5 -16 10 -3 6 -2 10 4 10 5 0 13 -4 16
-10z m3176 -30 c-51 -24 -61 -25 -61 -6 0 18 15 24 65 25 l40 1 -44 -20z
m-246 0 c3 -5 2 -10 -4 -10 -5 0 -13 5 -16 10 -3 6 -2 10 4 10 5 0 13 -4 16
-10z m176 -33 c-1 -12 -15 -9 -19 4 -3 6 1 10 8 8 6 -3 11 -8 11 -12z m1550
-30 c-17 -17 -24 -1 -9 22 11 18 14 19 16 5 2 -9 -1 -21 -7 -27z m-1311 18 c0
-8 -3 -15 -6 -15 -3 0 -12 7 -20 15 -14 13 -13 15 5 15 12 0 21 -6 21 -15z
m-2197 -180 c-3 -9 -8 -14 -10 -11 -3 3 -2 9 2 15 9 16 15 13 8 -4z m150 -43
c-3 -12 -9 -22 -14 -22 -5 0 -3 11 3 25 13 30 20 28 11 -3z m-170 -10 c-3 -12
-9 -22 -14 -22 -5 0 -3 11 3 25 13 30 20 28 11 -3z m-669 -17 c-4 -8 -8 -15
-10 -15 -2 0 -4 7 -4 15 0 8 4 15 10 15 5 0 7 -7 4 -15z m611 -125 c-10 -22
-20 -38 -22 -36 -2 2 4 22 13 45 9 23 19 39 22 37 3 -3 -3 -24 -13 -46z m175
-86 c0 -8 -4 -12 -10 -9 -5 3 -10 -1 -10 -9 0 -9 -7 -16 -15 -16 -14 0 -14 3
0 30 16 31 35 32 35 4z m-710 -274 c0 -5 -7 -10 -16 -10 -8 0 -12 5 -9 10 3 6
10 10 16 10 5 0 9 -4 9 -10z m-10 -280 c-14 -4 -38 -8 -55 -8 -29 0 -29 0 -5
8 14 4 39 8 55 8 29 0 29 0 5 -8z m1802 -135 c0 -5 -5 -11 -11 -13 -6 -2 -11
4 -11 13 0 9 5 15 11 13 6 -2 11 -8 11 -13z m-1335 -131 c-3 -3 -12 -4 -19 -1
-8 3 -5 6 6 6 11 1 17 -2 13 -5z m-72 -24 c3 -6 0 -17 -8 -25 -16 -16 -13 -47
10 -80 16 -24 17 -82 1 -87 -8 -3 -12 -21 -12 -46 2 -51 -8 -53 -31 -6 -23 49
-24 178 -1 222 17 33 30 40 41 22z m-680 -130 c11 -17 -5 -32 -21 -19 -7 6
-11 15 -8 20 7 12 21 11 29 -1z m42 -72 c-3 -8 -6 -5 -6 6 -1 11 2 17 5 13 3
-3 4 -12 1 -19z m978 -118 c-3 -5 -13 -6 -21 -3 -12 4 -13 8 -3 14 15 9 32 2
24 -11z m242 -206 c24 -10 43 -25 43 -31 0 -7 -1 -13 -3 -13 -9 0 -82 42 -98
56 -24 22 -25 42 -1 23 9 -8 36 -24 59 -35z m-1353 -75 c-3 -5 -10 -7 -15 -3
-5 3 -7 10 -3 15 3 5 10 7 15 3 5 -3 7 -10 3 -15z m594 -104 c15 -32 0 -41
-33 -19 -32 21 -33 44 -2 44 16 0 28 -9 35 -25z m-42 -35 c8 0 14 -4 14 -8 0
-14 -39 -46 -47 -39 -3 4 -1 7 5 7 16 0 15 27 0 32 -7 3 -8 9 -3 18 6 10 10
11 13 2 2 -7 10 -12 18 -12z m414 0 c0 -5 -5 -10 -11 -10 -5 0 -7 5 -4 10 3 6
8 10 11 10 2 0 4 -4 4 -10z m-583 -36 c-3 -3 -12 -4 -19 -1 -8 3 -5 6 6 6 11
1 17 -2 13 -5z m235 -9 c0 -5 -5 -10 -11 -12 -8 -1 -7 0 0 4 8 4 7 8 -2 15
-11 8 -11 9 -1 6 8 -2 14 -8 14 -13z m-517 -15 c-3 -5 -13 -10 -21 -10 -8 0
-12 5 -9 10 3 6 13 10 21 10 8 0 12 -4 9 -10z m323 -8 c3 -9 -2 -13 -14 -10
-9 1 -19 9 -22 16 -3 9 2 13 14 10 9 -1 19 -9 22 -16z m432 8 c0 -5 -5 -10
-11 -10 -5 0 -7 5 -4 10 3 6 8 10 11 10 2 0 4 -4 4 -10z m-295 -20 c3 -5 2
-10 -4 -10 -5 0 -13 5 -16 10 -3 6 -2 10 4 10 5 0 13 -4 16 -10z m-276 -27
c11 -21 9 -23 -11 -22 -13 0 -18 3 -12 5 7 3 9 15 6 27 -6 25 0 22 17 -10z
m471 -19 c0 -25 -4 -34 -16 -34 -11 0 -14 5 -10 16 3 9 6 27 6 40 0 14 4 22
10 19 6 -3 10 -22 10 -41z m40 42 c0 -3 -4 -8 -10 -11 -5 -3 -10 -1 -10 4 0 6
5 11 10 11 6 0 10 -2 10 -4z m-210 -26 c0 -5 -7 -10 -16 -10 -8 0 -12 5 -9 10
3 6 10 10 16 10 5 0 9 -4 9 -10z m-419 -15 c-1 -15 -24 -12 -29 3 -3 9 2 13
12 10 10 -1 17 -7 17 -13z m669 -5 c0 -5 -4 -10 -9 -10 -6 0 -13 5 -16 10 -3
6 1 10 9 10 9 0 16 -4 16 -10z m-234 -11 c3 -6 -1 -18 -10 -27 -15 -15 -16
-14 -16 11 0 27 13 36 26 16z m-389 -15 c-3 -3 -12 -4 -19 -1 -8 3 -5 6 6 6
11 1 17 -2 13 -5z m-70 -156 c-3 -8 -6 -5 -6 6 -1 11 2 17 5 13 3 -3 4 -12 1
-19z m-46 -41 c-13 -13 -26 -3 -16 12 3 6 11 8 17 5 6 -4 6 -10 -1 -17z m36
-43 c-3 -3 -12 -4 -19 -1 -8 3 -5 6 6 6 11 1 17 -2 13 -5z m-57 -49 c0 -16 -9
-19 -35 -9 -13 5 -14 8 -3 15 20 13 38 11 38 -6z m20 -50 c0 -8 -4 -15 -9 -15
-13 0 -22 16 -14 24 11 11 23 6 23 -9z m2480 6 c0 -10 -24 -21 -43 -21 -7 0
-3 7 7 15 22 17 36 19 36 6z m-800 -36 c0 -8 -4 -15 -10 -15 -5 0 -10 7 -10
15 0 8 5 15 10 15 6 0 10 -7 10 -15z m418 -51 c-19 -19 -39 -27 -74 -30 -37
-3 -44 -2 -29 5 11 6 31 19 45 30 14 11 38 21 55 21 l30 0 -27 -26z m112 -4
c0 -5 -7 -7 -15 -4 -8 4 -12 10 -9 15 6 11 24 2 24 -11z m-409 -81 c33 -17 13
-25 -68 -27 -52 0 -71 2 -58 8 11 5 32 9 48 9 15 1 27 6 27 11 0 13 26 13 51
-1z m-1731 -169 c0 -5 -4 -10 -10 -10 -5 0 -10 5 -10 10 0 6 5 10 10 10 6 0
10 -4 10 -10z m380 -10 c-8 -5 -19 -10 -25 -10 -5 0 -3 5 5 10 8 5 20 10 25
10 6 0 3 -5 -5 -10z m-230 -9 c0 -6 -4 -13 -10 -16 -5 -3 -10 1 -10 9 0 9 5
16 10 16 6 0 10 -4 10 -9z m114 -6 c3 -8 11 -15 18 -15 7 0 31 -5 53 -12 l40
-11 -38 -9 c-40 -8 -77 3 -77 24 0 6 -8 17 -17 24 -16 12 -16 13 -2 14 9 0 19
-7 23 -15z m-47 -37 c-3 -8 -6 -5 -6 6 -1 11 2 17 5 13 3 -3 4 -12 1 -19z
m213 -18 c0 -11 -48 -25 -57 -16 -4 3 1 6 10 6 10 0 17 5 17 10 0 6 7 10 15
10 8 0 15 -4 15 -10z m-297 -22 c4 -14 140 -16 191 -3 21 6 32 4 40 -7 6 -8
20 -18 31 -22 16 -6 17 -9 5 -16 -21 -14 -30 -12 -30 5 0 10 -10 15 -34 15
-42 0 -52 -12 -30 -35 9 -9 14 -18 11 -21 -9 -9 -27 6 -27 22 0 11 -16 13 -85
10 -70 -3 -87 0 -100 14 -17 19 -11 50 10 50 7 0 15 -6 18 -12z m-163 -38 c0
-5 -5 -10 -11 -10 -5 0 -7 5 -4 10 3 6 8 10 11 10 2 0 4 -4 4 -10z m624 -5
c23 -17 13 -34 -11 -19 -19 12 -29 34 -16 34 4 0 17 -7 27 -15z m-124 -46 c0
-14 7 -19 25 -19 14 0 37 -12 52 -28 16 -16 36 -31 46 -35 23 -9 22 -27 -3
-27 -11 0 -28 -9 -37 -19 -18 -22 -35 -19 -27 4 6 16 -36 31 -60 22 -9 -4 -16
4 -20 25 -3 17 -4 33 -1 36 3 3 5 0 5 -6 0 -7 5 -12 10 -12 6 0 10 9 10 20 0
11 -4 20 -10 20 -5 0 -10 12 -10 26 0 14 4 23 10 19 6 -3 10 -15 10 -26z m571
13 c-7 -2 -18 1 -23 6 -8 8 -4 9 13 5 13 -4 18 -8 10 -11z m-951 -22 c0 -28
-2 -29 -20 -18 -11 7 -20 21 -20 30 0 11 8 18 20 18 16 0 20 -7 20 -30z m183
23 c-7 -2 -21 -2 -30 0 -10 3 -4 5 12 5 17 0 24 -2 18 -5z m877 -3 c0 -5 -2
-10 -4 -10 -3 0 -8 5 -11 10 -3 6 -1 10 4 10 6 0 11 -4 11 -10z m78 4 c26 -7
28 -26 6 -48 -21 -22 -33 -20 -27 4 3 11 0 27 -7 35 -13 16 -8 18 28 9z m-48
-24 c0 -5 -2 -10 -4 -10 -3 0 -8 5 -11 10 -3 6 -1 10 4 10 6 0 11 -4 11 -10z
m-850 -26 c0 -8 -5 -14 -11 -14 -18 0 -50 21 -45 29 9 13 56 0 56 -15z m58
-15 c-4 -32 -37 -39 -36 -7 2 30 18 52 30 40 6 -6 8 -20 6 -33z m1246 25 c25
-10 19 -21 -11 -20 -14 1 -28 7 -31 14 -4 13 16 16 42 6z m-1744 -44 c0 -5
-18 -10 -40 -10 -22 0 -40 5 -40 10 0 6 18 10 40 10 22 0 40 -4 40 -10z m243
-10 c-6 -23 -14 -25 -31 -8 -18 18 -14 28 12 28 19 0 23 -4 19 -20z m205 8
c-3 -7 -11 -13 -18 -13 -7 0 -15 6 -17 13 -3 7 4 12 17 12 13 0 20 -5 18 -12z
m1279 -24 c-3 -3 -12 -4 -19 -1 -8 3 -5 6 6 6 11 1 17 -2 13 -5z m-1312 -34
c3 -5 1 -10 -4 -10 -6 0 -11 5 -11 10 0 6 2 10 4 10 3 0 8 -4 11 -10z m40 -11
c-10 -15 -25 -10 -19 6 4 8 10 12 15 9 5 -3 7 -10 4 -15z m148 1 c12 0 17 -6
15 -17 -5 -25 -29 -28 -35 -4 -3 12 -9 21 -14 21 -5 0 -9 5 -9 12 0 9 3 9 12
0 7 -7 20 -12 31 -12z m-686 4 c-3 -3 -12 -4 -19 -1 -8 3 -5 6 6 6 11 1 17 -2
13 -5z m108 -34 c3 -5 -1 -10 -9 -10 -9 0 -16 5 -16 10 0 6 4 10 9 10 6 0 13
-4 16 -10z m-105 -10 c0 -5 -9 -10 -20 -10 -11 0 -20 5 -20 10 0 6 9 10 20 10
11 0 20 -4 20 -10z m727 -46 c-3 -3 -12 -4 -19 -1 -8 3 -5 6 6 6 11 1 17 -2
13 -5z m1310 -70 c-3 -3 -12 -4 -19 -1 -8 3 -5 6 6 6 11 1 17 -2 13 -5z
m-2332 -14 c-3 -5 -10 -10 -16 -10 -5 0 -9 5 -9 10 0 6 7 10 16 10 8 0 12 -4
9 -10z m2280 -30 c4 -6 -5 -10 -20 -10 -15 0 -24 4 -20 10 3 6 12 10 20 10 8
0 17 -4 20 -10z m-2168 -82 c-3 -8 -6 -5 -6 6 -1 11 2 17 5 13 3 -3 4 -12 1
-19z m502 -135 c17 -15 31 -33 31 -41 0 -7 5 -22 11 -33 8 -16 13 -18 25 -8
12 9 14 6 14 -18 0 -27 2 -29 30 -25 17 2 37 -1 44 -7 11 -9 19 -9 34 0 17 10
24 10 38 -2 16 -13 13 -14 -27 -19 -46 -5 -64 -30 -39 -54 9 -8 11 -6 6 10 -5
16 -2 23 14 27 32 8 60 -4 66 -29 3 -13 12 -24 20 -24 8 0 14 -9 14 -20 0 -13
7 -20 20 -20 11 0 20 5 20 10 0 6 18 10 40 10 22 0 40 5 40 10 0 6 -21 10 -46
10 -38 0 -45 3 -42 18 4 21 88 31 88 10 0 -7 3 -22 6 -34 5 -17 -2 -24 -40
-38 -46 -18 -61 -36 -28 -36 9 0 23 -10 31 -21 19 -31 -1 -40 -79 -35 -51 3
-64 7 -62 19 1 9 -2 18 -8 22 -12 7 -30 -34 -23 -52 8 -20 -30 -33 -46 -16
-11 12 -10 15 8 20 27 7 27 23 1 30 -28 7 -53 68 -40 94 9 16 7 19 -9 19 -11
0 -21 -5 -23 -10 -2 -7 -19 -8 -46 -4 -31 5 -42 11 -42 25 0 13 -9 19 -32 21
-35 3 -52 28 -19 28 11 0 23 5 26 10 4 6 -7 10 -24 10 -17 0 -31 4 -31 9 0 6
12 9 28 8 18 -1 27 3 27 13 0 10 -16 18 -47 23 -27 5 -48 13 -48 18 0 5 4 9 9
9 5 0 11 13 14 29 7 32 31 61 52 61 7 0 27 -12 44 -27z m1236 -56 c0 -17 20
-36 38 -37 4 0 7 9 7 20 0 11 4 20 10 20 5 0 7 -7 4 -15 -4 -8 -1 -15 5 -15 6
0 11 -7 11 -16 0 -14 -3 -14 -15 -4 -12 10 -15 10 -15 -4 0 -19 1 -19 -39 -5
-17 6 -31 17 -31 24 0 7 -16 16 -35 19 -44 9 -45 23 -2 29 50 6 62 3 62 -16z
m-116 0 c8 -11 5 -13 -19 -9 -16 2 -27 8 -24 13 8 13 30 11 43 -4z m-1729 -62
c0 -8 -7 -15 -16 -15 -14 0 -14 3 -4 15 7 8 14 15 16 15 2 0 4 -7 4 -15z
m1140 -15 c0 -5 -7 -10 -15 -10 -8 0 -15 5 -15 10 0 6 7 10 15 10 8 0 15 -4
15 -10z m744 -9 c3 -5 0 -11 -8 -14 -15 -6 -26 1 -26 15 0 11 27 10 34 -1z
m-1184 -151 c0 -5 -7 -10 -15 -10 -8 0 -15 5 -15 10 0 6 7 10 15 10 8 0 15 -4
15 -10z m-620 -14 c0 -9 -9 -14 -20 -13 -11 1 -20 7 -20 14 0 7 9 13 20 13 11
0 20 -6 20 -14z m954 -82 c9 -24 8 -26 -14 -14 -11 6 -18 15 -15 21 9 14 22
11 29 -7z m156 -44 c0 -5 -4 -10 -10 -10 -5 0 -10 5 -10 10 0 6 5 10 10 10 6
0 10 -4 10 -10z m117 -6 c-3 -3 -12 -4 -19 -1 -8 3 -5 6 6 6 11 1 17 -2 13 -5z
m-7 -49 c0 -8 -4 -15 -10 -15 -5 0 -10 7 -10 15 0 8 5 15 10 15 6 0 10 -7 10
-15z m-1070 -105 c0 -5 -4 -10 -10 -10 -5 0 -10 5 -10 10 0 6 5 10 10 10 6 0
10 -4 10 -10z m-93 -22 c-3 -8 -6 -5 -6 6 -1 11 2 17 5 13 3 -3 4 -12 1 -19z
m1683 -18 c0 -5 -8 -10 -17 -10 -15 0 -16 2 -3 10 19 12 20 12 20 0z m-1530
-41 c0 -9 10 -21 23 -27 l22 -11 -22 0 c-13 -1 -23 4 -23 9 0 6 -6 10 -14 10
-14 0 -26 21 -26 46 0 12 4 12 20 2 11 -7 20 -20 20 -29z m2095 -45 c-23 -17
-28 -13 -19 20 5 23 7 24 22 9 15 -14 14 -17 -3 -29z m-59 -30 c-5 -13 -46
-21 -46 -9 0 3 7 17 17 31 14 22 17 24 26 9 5 -9 6 -23 3 -31z m-1935 15 c30
-21 39 -49 15 -49 -8 0 -13 8 -12 18 1 12 -6 17 -24 17 -15 0 -26 6 -28 18 -5
23 13 22 49 -4z m2136 -1 c-3 -8 -6 -5 -6 6 -1 11 2 17 5 13 3 -3 4 -12 1 -19z
m308 12 c-3 -5 -11 -10 -16 -10 -6 0 -7 5 -4 10 3 6 11 10 16 10 6 0 7 -4 4
-10z m-2605 -20 c0 -5 -4 -10 -10 -10 -5 0 -10 5 -10 10 0 6 5 10 10 10 6 0
10 -4 10 -10z m2564 -11 c-8 -14 -24 -10 -24 6 0 9 6 12 15 9 8 -4 12 -10 9
-15z m-2449 -19 c3 -5 -1 -10 -9 -10 -9 0 -16 5 -16 10 0 6 4 10 9 10 6 0 13
-4 16 -10z m155 -50 c12 -12 19 -24 17 -27 -9 -8 -67 8 -67 18 0 5 -9 9 -20 9
-12 0 -20 7 -20 16 0 24 62 12 90 -16z m-245 -40 c-3 -5 -10 -10 -16 -10 -5 0
-9 5 -9 10 0 6 7 10 16 10 8 0 12 -4 9 -10z m295 -14 c0 -8 -4 -18 -10 -21 -5
-3 -10 3 -10 14 0 12 5 21 10 21 6 0 10 -6 10 -14z m-133 -102 c-3 -3 -12 -4
-19 -1 -8 3 -5 6 6 6 11 1 17 -2 13 -5z m264 -14 c5 0 9 -7 9 -15 0 -22 -23
-18 -39 6 -11 19 -11 21 4 15 9 -3 21 -6 26 -6z m69 -46 c0 -10 -7 -14 -22
-12 -32 5 -35 28 -4 28 17 0 26 -5 26 -16z m-152 -141 c-10 -2 -26 -2 -35 0
-10 3 -2 5 17 5 19 0 27 -2 18 -5z m-178 -12 c0 -5 -8 -23 -17 -40 -21 -37
-48 -43 -39 -8 3 12 6 30 6 40 0 11 8 17 25 17 14 0 25 -4 25 -9z m905 -31 c3
-5 -3 -10 -14 -10 -12 0 -21 5 -21 10 0 6 6 10 14 10 8 0 18 -4 21 -10z m-847
-27 c2 -8 -6 -13 -22 -13 -25 0 -33 10 -19 24 10 10 36 3 41 -11z m694 -36
c10 -17 -4 -20 -35 -8 -36 14 -36 35 0 26 15 -3 31 -12 35 -18z m-684 -103
c27 -18 29 -34 4 -34 -21 0 -42 18 -42 37 0 17 11 16 38 -3z m313 -90 c10 -13
10 -17 -2 -25 -23 -14 -29 -11 -29 16 0 29 12 32 31 9z m612 -254 c6 -22 0
-25 -22 -11 -7 5 -10 14 -7 20 11 17 23 13 29 -9z"/>
<path d="M8071 14984 c0 -11 3 -14 6 -6 3 7 2 16 -1 19 -3 4 -6 -2 -5 -13z"/>
<path d="M8045 14940 c-3 -5 -1 -10 4 -10 6 0 11 5 11 10 0 6 -2 10 -4 10 -3
0 -8 -4 -11 -10z"/>
<path d="M7450 13010 c0 -5 5 -10 11 -10 5 0 7 5 4 10 -3 6 -8 10 -11 10 -2 0
-4 -4 -4 -10z"/>
<path d="M7640 12961 c1 -13 51 -42 68 -39 11 2 3 10 -25 24 -24 12 -43 19
-43 15z"/>
<path d="M7220 12890 c0 -5 5 -10 11 -10 5 0 7 5 4 10 -3 6 -8 10 -11 10 -2 0
-4 -4 -4 -10z"/>
<path d="M7778 12883 c6 -2 18 -2 25 0 6 3 1 5 -13 5 -14 0 -19 -2 -12 -5z"/>
<path d="M7230 12820 c0 -5 7 -10 15 -10 8 0 15 5 15 10 0 6 -7 10 -15 10 -8
0 -15 -4 -15 -10z"/>
<path d="M6097 12786 c-4 -10 -5 -21 -2 -24 9 -9 17 6 13 25 -3 17 -4 17 -11
-1z"/>
<path d="M6060 12750 c0 -5 5 -10 10 -10 6 0 10 5 10 10 0 6 -4 10 -10 10 -5
0 -10 -4 -10 -10z"/>
<path d="M7944 12719 c-3 -5 2 -9 10 -9 9 0 16 -4 16 -10 0 -5 5 -10 10 -10 6
0 10 6 10 14 0 16 -37 28 -46 15z"/>
<path d="M5756 12706 c3 -8 12 -12 20 -9 21 8 17 23 -6 23 -13 0 -18 -5 -14
-14z"/>
<path d="M7547 12693 c-8 -7 31 -53 45 -53 5 0 5 8 0 18 -5 9 -7 23 -5 30 5
13 -28 17 -40 5z"/>
<path d="M5750 12656 c0 -9 7 -16 16 -16 9 0 14 5 12 12 -6 18 -28 21 -28 4z"/>
<path d="M5720 12624 c0 -8 5 -12 10 -9 6 3 10 10 10 16 0 5 -4 9 -10 9 -5 0
-10 -7 -10 -16z"/>
<path d="M8358 12393 c7 -3 16 -2 19 1 4 3 -2 6 -13 5 -11 0 -14 -3 -6 -6z"/>
<path d="M5328 12309 c-16 -11 -28 -27 -28 -35 0 -8 -4 -14 -10 -14 -5 0 -10
-6 -10 -13 0 -16 48 -17 58 -1 4 6 15 13 25 17 13 5 17 15 15 34 -4 34 -16 37
-50 12z"/>
<path d="M8518 12243 c7 -3 16 -2 19 1 4 3 -2 6 -13 5 -11 0 -14 -3 -6 -6z"/>
<path d="M4786 11881 c-4 -7 -5 -15 -2 -18 9 -9 19 4 14 18 -4 11 -6 11 -12 0z"/>
<path d="M4751 11864 c0 -11 3 -14 6 -6 3 7 2 16 -1 19 -3 4 -6 -2 -5 -13z"/>
<path d="M4748 11833 c7 -3 16 -2 19 1 4 3 -2 6 -13 5 -11 0 -14 -3 -6 -6z"/>
<path d="M6415 11610 c-3 -5 1 -10 10 -10 9 0 13 5 10 10 -3 6 -8 10 -10 10
-2 0 -7 -4 -10 -10z"/>
<path d="M4640 11590 c0 -5 4 -10 9 -10 6 0 13 5 16 10 3 6 -1 10 -9 10 -9 0
-16 -4 -16 -10z"/>
<path d="M6737 11155 c-7 -16 8 -29 23 -20 10 6 2 35 -10 35 -4 0 -10 -7 -13
-15z"/>
<path d="M5425 10651 c3 -5 -3 -12 -12 -14 -17 -4 -17 -5 0 -6 10 0 25 6 33
14 14 13 13 15 -6 15 -12 0 -19 -4 -15 -9z"/>
<path d="M4945 10600 c-8 -13 3 -30 21 -30 18 0 18 14 0 29 -10 8 -16 9 -21 1z"/>
<path d="M6360 10450 c0 -5 5 -10 11 -10 5 0 7 5 4 10 -3 6 -8 10 -11 10 -2 0
-4 -4 -4 -10z"/>
<path d="M9070 10273 c0 -6 12 -23 28 -38 l27 -28 -25 6 -25 6 24 -20 c38 -32
54 -25 31 15 -23 37 -60 74 -60 59z"/>
<path d="M4635 10170 c-3 -6 1 -7 9 -4 18 7 21 14 7 14 -6 0 -13 -4 -16 -10z"/>
<path d="M4615 10140 c-3 -5 -1 -10 4 -10 6 0 11 5 11 10 0 6 -2 10 -4 10 -3
0 -8 -4 -11 -10z"/>
<path d="M6910 10114 c0 -9 5 -14 12 -12 18 6 21 28 4 28 -9 0 -16 -7 -16 -16z"/>
<path d="M6945 10101 c-5 -22 -1 -35 17 -53 13 -14 29 -23 36 -21 20 7 14 38
-10 48 -15 6 -23 18 -22 33 1 32 -13 27 -21 -7z"/>
<path d="M6835 10109 c-9 -13 -7 -15 28 -23 16 -4 27 -2 27 4 0 5 -7 10 -15
10 -8 0 -15 5 -15 10 0 13 -17 13 -25 -1z"/>
<path d="M4507 10063 c-10 -10 -8 -43 2 -43 9 0 21 24 21 41 0 11 -14 12 -23
2z"/>
<path d="M6900 10055 c0 -9 5 -15 11 -13 6 2 11 8 11 13 0 5 -5 11 -11 13 -6
2 -11 -4 -11 -13z"/>
<path d="M7160 9986 c0 -8 9 -20 21 -26 18 -10 20 -9 17 12 -3 26 -38 39 -38
14z"/>
<path d="M9330 9996 c0 -2 7 -9 15 -16 13 -11 14 -10 9 4 -5 14 -24 23 -24 12z"/>
<path d="M9385 9950 c3 -5 8 -10 11 -10 2 0 4 5 4 10 0 6 -5 10 -11 10 -5 0
-7 -4 -4 -10z"/>
<path d="M6930 9920 c0 -5 7 -10 16 -10 8 0 12 5 9 10 -3 6 -10 10 -16 10 -5
0 -9 -4 -9 -10z"/>
<path d="M9420 9910 c0 -5 5 -10 10 -10 6 0 10 5 10 10 0 6 -4 10 -10 10 -5 0
-10 -4 -10 -10z"/>
<path d="M7062 9675 c30 -27 45 -30 68 -14 13 9 12 10 -3 5 -11 -3 -22 2 -29
14 -7 11 -24 20 -38 20 l-25 0 27 -25z"/>
<path d="M9590 9676 c0 -2 7 -6 15 -10 8 -3 15 -1 15 4 0 6 -7 10 -15 10 -8 0
-15 -2 -15 -4z"/>
<path d="M4562 9469 c-26 -48 -27 -56 -7 -39 8 7 15 19 15 26 0 8 9 19 20 26
23 15 26 28 7 28 -7 0 -23 -18 -35 -41z"/>
<path d="M4470 9046 c0 -20 2 -36 4 -36 8 0 12 61 4 66 -4 3 -8 -11 -8 -30z"/>
<path d="M4451 8994 c0 -11 3 -14 6 -6 3 7 2 16 -1 19 -3 4 -6 -2 -5 -13z"/>
<path d="M4614 8855 c-8 -20 3 -48 16 -40 13 8 13 55 0 55 -6 0 -13 -7 -16
-15z"/>
<path d="M5760 8119 c0 -18 2 -19 15 -9 15 12 12 30 -6 30 -5 0 -9 -10 -9 -21z"/>
<path d="M5571 7989 c-13 -11 -21 -22 -18 -25 8 -8 47 19 47 33 0 16 0 16 -29
-8z"/>
<path d="M8895 9580 c-14 -16 -26 -18 -68 -13 -37 5 -48 3 -43 -5 4 -7 26 -12
49 -12 103 -2 374 -97 456 -161 16 -13 32 -17 50 -13 43 11 48 24 9 24 -20 0
-40 5 -44 11 -7 11 9 10 110 -7 30 -5 38 -4 34 7 -4 13 -70 26 -169 33 -40 3
-62 13 -54 26 3 5 19 4 36 -2 16 -5 39 -8 50 -5 11 3 35 1 55 -5 63 -17 60 -2
-6 30 -36 17 -72 32 -80 34 -8 2 -19 8 -25 14 -23 26 -150 57 -246 60 -85 2
-99 0 -114 -16z"/>
<path d="M9495 9383 c4 -10 13 -58 20 -107 21 -133 29 -126 27 23 -1 45 -6 69
-18 82 -21 24 -38 25 -29 2z"/>
<path d="M9303 9315 c4 -12 96 -15 103 -3 6 9 1 9 -63 12 -25 0 -42 -3 -40 -9z"/>
<path d="M9616 9267 c3 -10 9 -15 12 -12 3 3 0 11 -7 18 -10 9 -11 8 -5 -6z"/>
<path d="M8990 9255 c0 -17 33 -66 49 -75 26 -13 33 -13 56 4 19 14 19 15 1
35 -11 12 -27 21 -38 21 -10 0 -18 5 -18 10 0 6 -11 10 -25 10 -14 0 -25 -2
-25 -5z"/>
<path d="M9342 9249 c2 -6 7 -10 11 -10 4 1 17 1 30 1 18 0 19 2 7 10 -20 13
-53 13 -48 -1z"/>
<path d="M9636 9208 c5 -32 3 -34 -58 -68 -35 -19 -65 -33 -68 -32 -5 2 -5 -2
-1 -35 2 -16 3 -16 11 2 7 17 9 16 9 -10 2 -51 14 -61 47 -38 16 11 39 23 51
27 20 6 22 13 22 91 -1 47 -5 87 -9 90 -5 3 -6 -9 -4 -27z"/>
<path d="M9666 8923 c-3 -60 -9 -130 -11 -158 -4 -46 -4 -47 5 -15 11 39 26
280 18 280 -3 0 -8 -48 -12 -107z"/>
<path d="M7551 8984 c0 -11 3 -14 6 -6 3 7 2 16 -1 19 -3 4 -6 -2 -5 -13z"/>
<path d="M8997 8968 c7 -8 10 -18 6 -21 -3 -4 -1 -7 5 -7 22 0 22 19 0 31 -20
11 -21 10 -11 -3z"/>
<path d="M9145 8920 c3 -5 12 -7 20 -3 21 7 19 13 -6 13 -11 0 -18 -4 -14 -10z"/>
<path d="M7690 8865 c7 -8 16 -15 21 -15 5 0 9 7 9 15 0 9 -9 15 -21 15 -18 0
-19 -2 -9 -15z"/>
<path d="M9142 8796 c1 -10 8 -17 13 -17 15 1 12 24 -3 29 -9 3 -13 -2 -10
-12z"/>
<path d="M7565 8738 c14 -130 49 -260 80 -298 7 -8 10 -21 8 -27 -3 -7 0 -13
6 -13 6 0 7 -7 4 -17 -4 -11 -3 -14 5 -9 7 4 10 17 6 31 -3 12 -1 26 5 29 7 5
6 14 -3 29 -8 12 -20 49 -26 81 -7 35 -15 54 -20 47 -5 -9 -9 -8 -14 4 -3 9
-3 21 0 26 3 6 2 15 -4 22 -5 7 -15 45 -22 85 -16 89 -35 97 -25 10z"/>
<path d="M7680 8362 c1 -18 28 -40 50 -42 41 -4 44 -1 19 18 -25 20 -69 35
-69 24z"/>
<path d="M7790 8245 c0 -17 2 -18 24 -9 18 7 12 24 -10 24 -8 0 -14 -7 -14
-15z"/>
<path d="M7800 8154 c0 -6 6 -17 14 -23 11 -9 15 -8 20 4 4 10 2 14 -5 9 -6
-4 -15 0 -20 7 -5 8 -9 9 -9 3z"/>
<path d="M7900 8105 c0 -8 5 -15 11 -15 8 0 7 -6 -2 -17 -11 -15 -11 -16 1 -5
8 6 24 12 37 12 13 0 23 5 23 11 0 5 4 8 9 4 5 -3 12 -1 15 4 3 5 -8 11 -25
15 -50 10 -69 7 -69 -9z"/>
<path d="M7830 8104 c0 -3 30 -35 68 -70 63 -61 213 -156 252 -159 8 0 20 -4
26 -7 5 -4 34 -10 62 -14 29 -4 55 -11 58 -15 7 -12 91 -11 99 1 3 6 -2 10
-12 10 -19 1 -126 34 -144 46 -8 4 -7 9 1 14 9 6 3 13 -19 24 -17 9 -29 21
-26 26 4 6 0 12 -7 14 -90 26 -98 30 -98 51 0 13 -6 23 -12 22 -52 -2 -78 4
-78 18 0 12 9 14 43 9 l42 -6 -28 16 c-27 14 -31 14 -68 -4 -21 -11 -39 -22
-39 -25 0 -14 62 -34 96 -30 l39 5 -43 -11 c-23 -6 -40 -14 -37 -19 6 -9 -25
-23 -33 -15 -3 3 0 5 7 5 22 0 1 19 -43 39 -24 10 -54 33 -67 50 -21 28 -39
40 -39 25z m250 -124 c0 -5 -2 -10 -4 -10 -3 0 -8 5 -11 10 -3 6 -1 10 4 10 6
0 11 -4 11 -10z"/>
<path d="M8760 7858 c-30 -20 -37 -27 -20 -23 25 8 80 42 80 51 0 9 -17 1 -60
-28z"/>
<path d="M8480 7831 c0 -16 30 -21 113 -20 45 1 73 3 62 6 -11 3 -24 9 -29 14
-13 12 -146 12 -146 0z"/>
<path d="M5450 9540 c0 -5 5 -10 11 -10 5 0 7 5 4 10 -3 6 -8 10 -11 10 -2 0
-4 -4 -4 -10z"/>
<path d="M5761 5164 c0 -11 3 -14 6 -6 3 7 2 16 -1 19 -3 4 -6 -2 -5 -13z"/>
<path d="M5994 4935 c-4 -14 -4 -29 0 -32 3 -4 6 1 6 10 0 10 8 17 20 17 11 0
20 -4 20 -10 0 -5 9 -10 20 -10 15 0 20 -7 20 -26 0 -36 34 -29 38 9 3 22 -1
27 -17 27 -12 0 -21 6 -21 14 0 16 -21 26 -56 26 -17 0 -25 -7 -30 -25z"/>
<path d="M6000 4879 c0 -5 5 -7 10 -4 6 3 10 8 10 11 0 2 -4 4 -10 4 -5 0 -10
-5 -10 -11z"/>
<path d="M7585 15253 l-18 -28 27 24 c28 26 31 31 17 31 -5 0 -17 -12 -26 -27z"/>
<path d="M7526 15232 l-19 -27 24 22 c12 12 21 24 18 27 -2 2 -13 -8 -23 -22z"/>
<path d="M8779 14864 c-22 -25 -22 -26 -3 -16 12 6 24 18 28 27 8 21 3 19 -25
-11z"/>
<path d="M8849 14834 c-11 -30 -7 -40 13 -27 14 9 20 53 6 53 -5 0 -13 -12
-19 -26z"/>
<path d="M8255 14810 c-3 -6 1 -7 9 -4 18 7 21 14 7 14 -6 0 -13 -4 -16 -10z"/>
<path d="M6368 14774 c-27 -8 -48 -17 -48 -19 0 -11 86 8 100 21 18 17 8 17
-52 -2z"/>
<path d="M8355 14740 c-3 -5 -2 -10 4 -10 5 0 13 5 16 10 3 6 2 10 -4 10 -5 0
-13 -4 -16 -10z"/>
<path d="M8863 14735 c-9 -24 1 -27 15 -5 8 13 8 20 2 20 -6 0 -13 -7 -17 -15z"/>
<path d="M8919 14694 l-24 -26 33 7 c21 4 32 3 32 -5 0 -6 5 -8 10 -5 15 9 12
25 -5 25 -9 0 -12 6 -9 15 9 23 -10 18 -37 -11z"/>
<path d="M9158 14573 c7 -3 16 -2 19 1 4 3 -2 6 -13 5 -11 0 -14 -3 -6 -6z"/>
<path d="M5610 14525 c-20 -24 -5 -28 21 -6 19 16 20 20 8 21 -9 0 -22 -7 -29
-15z"/>
<path d="M9224 14405 c11 -8 25 -15 30 -15 6 0 2 7 -8 15 -11 8 -25 15 -30 15
-6 0 -2 -7 8 -15z"/>
<path d="M9428 14233 c7 -3 16 -2 19 1 4 3 -2 6 -13 5 -11 0 -14 -3 -6 -6z"/>
<path d="M9260 14210 c0 -5 5 -10 11 -10 5 0 7 5 4 10 -3 6 -8 10 -11 10 -2 0
-4 -4 -4 -10z"/>
<path d="M9345 14200 c3 -5 8 -10 11 -10 2 0 4 5 4 10 0 6 -5 10 -11 10 -5 0
-7 -4 -4 -10z"/>
<path d="M5207 14157 c-11 -29 -9 -43 4 -30 6 6 9 19 7 29 -3 18 -4 18 -11 1z"/>
<path d="M4770 13709 c0 -5 5 -7 10 -4 6 3 10 8 10 11 0 2 -4 4 -10 4 -5 0
-10 -5 -10 -11z"/>
<path d="M9900 13315 c7 -8 17 -15 22 -15 6 0 5 7 -2 15 -7 8 -17 15 -22 15
-6 0 -5 -7 2 -15z"/>
<path d="M4233 13044 c3 -4 2 -15 -4 -25 -7 -15 -6 -19 6 -19 8 0 15 7 15 15
0 8 6 15 13 15 8 0 7 4 -3 10 -17 11 -37 14 -27 4z"/>
<path d="M4047 12583 c-4 -3 -7 -11 -7 -17 0 -6 5 -5 12 2 6 6 9 14 7 17 -3 3
-9 2 -12 -2z"/>
<path d="M3972 12380 c-24 -31 -28 -45 -12 -35 10 6 44 65 37 65 -2 0 -13 -13
-25 -30z"/>
<path d="M10315 12090 c3 -5 8 -10 11 -10 2 0 4 5 4 10 0 6 -5 10 -11 10 -5 0
-7 -4 -4 -10z"/>
<path d="M3615 11660 c3 -5 8 -10 11 -10 2 0 4 5 4 10 0 6 -5 10 -11 10 -5 0
-7 -4 -4 -10z"/>
<path d="M3585 11550 c-13 -5 -14 -9 -5 -9 8 0 24 4 35 9 13 5 14 9 5 9 -8 0
-24 -4 -35 -9z"/>
<path d="M3626 11504 c-11 -8 -16 -14 -10 -14 13 0 39 18 34 24 -3 2 -14 -2
-24 -10z"/>
<path d="M3540 10870 c-9 -6 -10 -10 -3 -10 6 0 15 5 18 10 8 12 4 12 -15 0z"/>
<path d="M3539 10703 c-13 -16 -12 -17 4 -4 16 13 21 21 13 21 -2 0 -10 -8
-17 -17z"/>
<path d="M10410 10686 c0 -2 7 -7 16 -10 8 -3 12 -2 9 4 -6 10 -25 14 -25 6z"/>
<path d="M3518 10663 c7 -3 16 -2 19 1 4 3 -2 6 -13 5 -11 0 -14 -3 -6 -6z"/>
<path d="M10340 10085 c-18 -22 -4 -31 25 -15 19 10 22 16 13 22 -18 11 -24
10 -38 -7z"/>
<path d="M10344 9955 c8 -8 18 -15 22 -15 3 0 1 7 -6 15 -7 8 -17 15 -22 15
-5 0 -3 -7 6 -15z"/>
<path d="M10090 9230 c20 -13 33 -13 25 0 -3 6 -14 10 -23 10 -15 0 -15 -2 -2
-10z"/>
<path d="M6760 8811 c0 -6 4 -13 10 -16 6 -3 7 1 4 9 -7 18 -14 21 -14 7z"/>
<path d="M6751 8754 c0 -11 3 -14 6 -6 3 7 2 16 -1 19 -3 4 -6 -2 -5 -13z"/>
<path d="M6702 8520 c0 -14 2 -19 5 -12 2 6 2 18 0 25 -3 6 -5 1 -5 -13z"/>
<path d="M6732 8214 c-7 -8 -8 -14 -3 -14 10 0 25 19 20 25 -2 1 -10 -3 -17
-11z"/>
<path d="M6712 8150 c-1 -21 3 -42 9 -46 8 -4 9 1 4 15 -3 12 -2 21 3 21 6 0
12 -5 14 -12 5 -14 28 -2 28 15 0 7 -13 20 -28 29 l-29 17 -1 -39z"/>
<path d="M3798 7972 c-2 -72 0 -100 10 -107 10 -8 11 -17 3 -37 -10 -26 -4
-80 17 -158 7 -23 11 -28 12 -15 1 11 2 24 1 28 -1 4 6 10 14 13 8 4 15 11 15
16 0 6 16 28 35 49 19 22 35 48 35 60 0 11 -25 58 -54 102 -30 45 -58 94 -62
110 -13 55 -22 35 -26 -61z m57 -255 c-21 -31 -30 0 -14 54 l12 44 9 -38 c6
-29 4 -44 -7 -60z"/>
<path d="M9970 8025 c-17 -21 -26 -115 -11 -115 20 0 37 49 24 69 -13 21 -1
47 17 36 8 -5 11 -3 8 5 -7 21 -23 23 -38 5z"/>
<path d="M7591 7814 c0 -11 3 -14 6 -6 3 7 2 16 -1 19 -3 4 -6 -2 -5 -13z"/>
<path d="M4060 7800 c0 -5 5 -10 10 -10 6 0 10 5 10 10 0 6 -4 10 -10 10 -5 0
-10 -4 -10 -10z"/>
<path d="M5104 7758 c12 -7 21 -7 28 0 6 6 0 10 -18 10 -23 0 -24 -2 -10 -10z"/>
<path d="M5160 7760 c0 -5 5 -10 10 -10 6 0 10 5 10 10 0 6 -4 10 -10 10 -5 0
-10 -4 -10 -10z"/>
<path d="M4070 7740 c0 -5 5 -10 11 -10 5 0 7 5 4 10 -3 6 -8 10 -11 10 -2 0
-4 -4 -4 -10z"/>
<path d="M4077 7693 c-3 -5 -2 -24 2 -43 l7 -35 7 34 c7 33 -4 63 -16 44z"/>
<path d="M4101 7516 c1 -46 6 -59 22 -67 14 -8 17 -8 13 0 -4 5 -7 31 -8 55 0
26 -7 51 -14 57 -12 9 -14 2 -13 -45z"/>
<path d="M7761 7454 c0 -11 3 -14 6 -6 3 7 2 16 -1 19 -3 4 -6 -2 -5 -13z"/>
<path d="M4387 7453 c-13 -12 -7 -43 8 -43 8 0 15 6 15 13 0 18 -15 38 -23 30z"/>
<path d="M5036 7453 c-11 -11 -6 -23 9 -23 8 0 15 4 15 9 0 13 -16 22 -24 14z"/>
<path d="M4124 7396 c-6 -21 -7 -41 -2 -50 14 -25 0 -38 -25 -25 -14 6 -8 -3
15 -25 21 -20 45 -36 53 -36 18 0 18 -5 -1 59 -8 28 -14 60 -13 69 5 52 -11
57 -27 8z"/>
<path d="M6630 7365 c0 -8 9 -19 20 -25 16 -9 22 -8 26 4 3 8 3 20 -1 26 -9
15 -45 12 -45 -5z"/>
<path d="M6726 7322 c-3 -6 -1 -14 5 -17 15 -10 25 3 12 16 -7 7 -13 7 -17 1z"/>
<path d="M8112 7281 c2 -7 7 -12 11 -12 12 1 9 15 -3 20 -7 2 -11 -2 -8 -8z"/>
<path d="M5515 7240 c3 -5 12 -10 20 -10 8 0 17 5 20 10 4 6 -5 10 -20 10 -15
0 -24 -4 -20 -10z"/>
<path d="M7405 7206 c-45 -19 -176 -159 -162 -172 3 -3 14 -1 24 4 27 15 71
17 136 9 45 -7 61 -14 73 -33 19 -27 50 -31 81 -9 12 8 28 12 36 9 11 -4 17 4
22 28 4 18 12 48 18 66 11 31 9 35 -21 63 -18 17 -39 29 -46 26 -8 -3 -31 1
-52 8 -49 18 -71 18 -109 1z"/>
<path d="M5535 7181 c-6 -11 9 -23 19 -14 9 9 7 23 -3 23 -6 0 -12 -4 -16 -9z"/>
<path d="M8316 7151 c-6 -9 35 -24 43 -15 6 5 -18 24 -31 24 -4 0 -9 -4 -12
-9z"/>
<path d="M4610 7027 c0 -36 26 -59 41 -36 11 18 -6 64 -24 67 -13 3 -17 -4
-17 -31z"/>
<path d="M4236 7010 c8 -43 14 -51 14 -19 0 13 -5 31 -10 39 -7 11 -8 5 -4
-20z"/>
<path d="M5418 6873 c7 -3 16 -2 19 1 4 3 -2 6 -13 5 -11 0 -14 -3 -6 -6z"/>
<path d="M5360 6855 c0 -9 6 -12 15 -9 8 4 12 10 9 15 -8 14 -24 10 -24 -6z"/>
<path d="M5314 6806 c-7 -19 2 -46 16 -46 5 0 10 9 10 20 0 11 5 20 10 20 6 0
10 -9 10 -21 0 -19 1 -19 16 -5 8 9 23 17 32 17 9 1 1 5 -18 9 -19 4 -43 11
-52 15 -12 5 -20 2 -24 -9z"/>
<path d="M4295 6771 c-3 -5 -1 -12 5 -16 5 -3 10 1 10 9 0 18 -6 21 -15 7z"/>
<path d="M6686 6702 c-3 -6 -1 -14 5 -17 14 -9 20 -2 10 14 -6 8 -11 9 -15 3z"/>
<path d="M5303 6656 c4 -10 7 -35 7 -57 0 -21 5 -39 11 -39 16 0 7 102 -10
108 -10 3 -12 0 -8 -12z"/>
<path d="M6546 6595 c4 -8 10 -12 15 -9 14 8 10 24 -6 24 -9 0 -12 -6 -9 -15z"/>
<path d="M6590 6599 c0 -5 5 -7 10 -4 6 3 10 8 10 11 0 2 -4 4 -10 4 -5 0 -10
-5 -10 -11z"/>
<path d="M8520 6579 c0 -5 5 -7 10 -4 6 3 10 8 10 11 0 2 -4 4 -10 4 -5 0 -10
-5 -10 -11z"/>
<path d="M6430 6550 c0 -5 7 -10 15 -10 8 0 15 5 15 10 0 6 -7 10 -15 10 -8 0
-15 -4 -15 -10z"/>
<path d="M5395 6539 c-10 -15 1 -23 20 -15 9 3 13 10 10 16 -8 13 -22 13 -30
-1z"/>
<path d="M5440 6534 c0 -8 5 -12 10 -9 6 4 8 11 5 16 -9 14 -15 11 -15 -7z"/>
<path d="M5521 6524 c0 -11 3 -14 6 -6 3 7 2 16 -1 19 -3 4 -6 -2 -5 -13z"/>
<path d="M8720 6514 c0 -8 5 -12 10 -9 6 4 8 11 5 16 -9 14 -15 11 -15 -7z"/>
<path d="M4475 6489 c-4 -6 -5 -13 -2 -16 7 -7 27 6 27 18 0 12 -17 12 -25 -2z"/>
<path d="M6140 6455 c-10 -12 -10 -15 4 -15 9 0 16 7 16 15 0 8 -2 15 -4 15
-2 0 -9 -7 -16 -15z"/>
<path d="M5518 6440 c-2 -7 -13 -14 -24 -14 -31 -3 -43 -14 -37 -37 6 -21 7
-21 19 -4 11 15 16 16 29 5 13 -10 15 -9 15 8 0 11 4 22 10 24 5 2 6 9 1 17
-7 10 -10 10 -13 1z"/>
<path d="M7220 6309 c0 -5 6 -9 13 -9 6 0 22 -3 35 -6 15 -4 22 -2 22 7 0 9
-13 15 -35 16 -19 1 -35 -3 -35 -8z"/>
<path d="M7920 6050 c0 -5 7 -10 16 -10 8 0 12 5 9 10 -3 6 -10 10 -16 10 -5
0 -9 -4 -9 -10z"/>
<path d="M5280 5963 c1 -11 26 -43 33 -43 4 0 1 11 -5 25 -10 23 -28 35 -28
18z"/>
<path d="M4945 5921 c-3 -5 -1 -12 5 -16 5 -3 10 1 10 9 0 18 -6 21 -15 7z"/>
<path d="M4660 5903 c0 -5 7 -18 15 -29 13 -16 16 -17 25 -4 13 20 13 33 0 25
-6 -4 -17 -1 -25 5 -8 7 -15 8 -15 3z"/>
<path d="M4967 5863 c-13 -12 -7 -23 13 -23 11 0 20 7 20 15 0 15 -21 21 -33
8z"/>
<path d="M4700 5841 c0 -6 4 -13 10 -16 6 -3 7 1 4 9 -7 18 -14 21 -14 7z"/>
<path d="M9230 5825 c-7 -9 -11 -18 -8 -20 3 -3 11 1 18 10 7 9 11 18 8 20 -3
3 -11 -1 -18 -10z"/>
<path d="M4880 5810 c0 -5 5 -10 10 -10 6 0 10 5 10 10 0 6 -4 10 -10 10 -5 0
-10 -4 -10 -10z"/>
<path d="M7170 5810 c0 -5 5 -10 11 -10 5 0 7 5 4 10 -3 6 -8 10 -11 10 -2 0
-4 -4 -4 -10z"/>
<path d="M7250 5811 c0 -6 5 -11 11 -11 6 0 8 -9 4 -20 -4 -11 -2 -20 4 -20
16 0 13 36 -4 50 -10 9 -15 9 -15 1z"/>
<path d="M5142 5799 c2 -6 8 -10 13 -10 5 0 11 4 13 10 2 6 -4 11 -13 11 -9 0
-15 -5 -13 -11z"/>
<path d="M7047 5790 c-3 -11 -1 -20 4 -20 5 0 9 9 9 20 0 11 -2 20 -4 20 -2 0
-6 -9 -9 -20z"/>
<path d="M7350 5794 c0 -8 5 -12 10 -9 6 3 10 10 10 16 0 5 -4 9 -10 9 -5 0
-10 -7 -10 -16z"/>
<path d="M6986 5781 c-4 -7 -5 -15 -2 -18 9 -9 19 4 14 18 -4 11 -6 11 -12 0z"/>
<path d="M7150 5770 c0 -5 5 -10 10 -10 6 0 10 5 10 10 0 6 -4 10 -10 10 -5 0
-10 -4 -10 -10z"/>
<path d="M4758 5763 c7 -3 16 -2 19 1 4 3 -2 6 -13 5 -11 0 -14 -3 -6 -6z"/>
<path d="M4796 5754 c-9 -24 -2 -26 12 -4 7 11 8 20 3 20 -5 0 -12 -7 -15 -16z"/>
<path d="M5036 5706 c6 -16 34 -30 42 -21 8 7 -19 35 -34 35 -7 0 -11 -6 -8
-14z"/>
<path d="M4952 5655 c-11 -13 -10 -18 3 -31 21 -21 47 -10 43 18 -4 27 -28 34
-46 13z"/>
<path d="M7570 5518 c0 -5 0 -11 0 -15 0 -9 53 -9 68 1 24 15 11 26 -28 24
-22 -2 -40 -6 -40 -10z"/>
<path d="M5090 5510 c0 -5 7 -10 16 -10 8 0 12 5 9 10 -3 6 -10 10 -16 10 -5
0 -9 -4 -9 -10z"/>
<path d="M7598 5363 c6 -2 18 -2 25 0 6 3 1 5 -13 5 -14 0 -19 -2 -12 -5z"/>
<path d="M8721 5004 c0 -11 3 -14 6 -6 3 7 2 16 -1 19 -3 4 -6 -2 -5 -13z"/>
<path d="M6481 4984 c0 -11 3 -14 6 -6 3 7 2 16 -1 19 -3 4 -6 -2 -5 -13z"/>
<path d="M6924 4955 c1 -29 8 -31 27 -9 10 13 10 17 -2 25 -22 14 -27 11 -25
-16z"/>
<path d="M7030 4911 c0 -12 28 -41 40 -41 5 0 12 5 15 10 3 6 -1 10 -9 10 -8
0 -22 7 -30 16 -9 8 -16 11 -16 5z"/>
<path d="M6630 4879 c0 -5 5 -7 10 -4 6 3 10 8 10 11 0 2 -4 4 -10 4 -5 0 -10
-5 -10 -11z"/>
<path d="M5120 4854 c0 -11 5 -14 16 -10 9 3 20 6 25 6 5 0 9 5 9 10 0 6 -11
10 -25 10 -16 0 -25 -6 -25 -16z"/>
<path d="M8551 4854 c0 -11 3 -14 6 -6 3 7 2 16 -1 19 -3 4 -6 -2 -5 -13z"/>
<path d="M6737 4837 c-6 -16 31 -37 64 -37 19 0 19 1 4 16 -9 9 -19 14 -22 10
-4 -3 -14 1 -23 9 -15 14 -18 14 -23 2z"/>
<path d="M6705 4800 c3 -5 8 -10 11 -10 2 0 4 5 4 10 0 6 -5 10 -11 10 -5 0
-7 -4 -4 -10z"/>
<path d="M8466 4782 c-3 -5 1 -15 9 -22 16 -14 20 -3 6 19 -5 8 -11 9 -15 3z"/>
<path d="M8430 4755 c-7 -9 -10 -18 -7 -21 3 -3 10 4 17 15 13 25 8 27 -10 6z"/>
<path d="M5277 4741 c3 -12 9 -21 14 -21 14 0 11 16 -5 29 -12 10 -13 8 -9 -8z"/>
<path d="M7880 4750 c0 -5 9 -10 20 -10 11 0 20 5 20 10 0 6 -9 10 -20 10 -11
0 -20 -4 -20 -10z"/>
<path d="M8355 4679 c-25 -28 -34 -44 -27 -51 12 -12 35 7 64 51 38 56 14 56
-37 0z"/>
<path d="M9036 4623 c13 -49 45 -92 107 -142 184 -147 255 -276 264 -479 7
-154 -6 -217 -96 -467 -55 -153 -80 -209 -263 -580 -69 -140 -214 -360 -388
-589 -41 -54 -82 -108 -90 -120 -12 -17 -71 -92 -121 -153 -5 -7 -7 -13 -4
-13 18 0 -71 -78 -139 -124 -219 -144 -429 -219 -717 -256 -124 -15 -417 -13
-539 4 -211 31 -312 56 -605 151 -190 62 -577 243 -697 327 -42 29 -105 73
-140 97 -100 70 -164 153 -152 198 4 12 -4 31 -20 50 -14 17 -26 36 -26 42 0
21 -74 141 -87 141 -7 0 -13 6 -13 14 0 7 -7 19 -15 26 -31 25 -78 106 -78
132 0 26 -20 44 -37 33 -5 -3 -33 20 -64 50 -30 30 -62 55 -71 55 -9 0 -15 6
-13 13 3 16 -65 119 -72 108 -3 -5 -14 -5 -25 -1 -26 10 -185 164 -185 179 0
6 -5 11 -10 11 -6 0 -18 17 -28 38 -9 20 -21 40 -26 43 -5 4 -6 11 -2 17 3 6
2 12 -2 14 -11 4 -62 97 -62 112 0 6 -9 27 -19 47 -11 20 -22 51 -25 70 -3 19
-10 48 -15 65 -5 18 -12 74 -16 125 -5 73 -3 106 9 149 9 30 16 58 16 62 2 17
92 181 149 268 62 95 121 244 103 262 -9 9 -174 -47 -272 -93 -36 -16 -93 -48
-127 -70 -57 -37 -91 -52 -283 -119 -158 -55 -436 -210 -720 -400 -82 -55
-190 -122 -257 -161 -69 -40 -279 -120 -628 -241 -126 -43 -268 -94 -315 -113
-47 -19 -160 -59 -252 -89 -175 -58 -349 -135 -458 -204 -36 -23 -81 -50 -100
-60 -19 -10 -78 -44 -131 -75 -93 -56 -282 -147 -305 -147 -27 0 -329 -121
-544 -218 -227 -102 -339 -159 -378 -193 -18 -16 -37 -29 -42 -29 -6 0 -10
-434 -10 -1195 l0 -1195 7140 0 7140 0 0 690 0 690 -97 124 c-125 158 -181
235 -232 316 -64 104 -69 109 -129 139 -31 16 -70 44 -87 61 -16 18 -58 45
-93 61 -35 16 -82 42 -105 58 -23 15 -102 68 -175 117 -74 49 -166 111 -205
137 -76 51 -281 174 -334 201 -17 8 -69 44 -115 80 -93 70 -206 131 -433 232
-82 37 -167 78 -189 91 -21 14 -59 34 -85 45 -25 10 -59 29 -76 41 -16 13 -77
45 -135 72 -58 27 -121 59 -141 71 -20 13 -65 35 -100 50 -104 43 -196 92
-231 122 -18 16 -55 41 -83 57 -27 15 -81 49 -120 74 -38 26 -88 55 -110 66
-68 34 -316 170 -398 219 -42 25 -157 87 -255 137 -97 50 -235 123 -305 162
-70 40 -140 78 -155 86 -29 15 -75 53 -164 138 -61 58 -145 101 -308 158 -182
64 -213 76 -291 116 -43 21 -83 39 -89 39 -6 0 -8 -11 -4 -27z"/>
<path d="M7486 4611 c-4 -7 -5 -15 -2 -18 9 -9 19 4 14 18 -4 11 -6 11 -12 0z"/>
<path d="M5217 4604 c-8 -8 3 -34 14 -34 5 0 9 9 9 20 0 19 -11 26 -23 14z"/>
<path d="M8176 4597 c-6 -12 -3 -24 8 -36 9 -10 16 -23 16 -29 0 -23 28 -12
59 23 33 38 39 55 19 55 -31 0 -57 -13 -61 -31 -8 -28 -25 -23 -29 9 -4 23 -5
24 -12 9z"/>
<path d="M7770 4580 c0 -13 7 -20 20 -20 18 0 19 2 8 20 -7 11 -16 20 -20 20
-5 0 -8 -9 -8 -20z"/>
<path d="M7692 4530 c-23 -19 -28 -30 -13 -30 16 0 55 37 45 42 -5 4 -19 -2
-32 -12z"/>
<path d="M7883 4530 c-9 -13 -9 -21 -2 -26 6 -3 8 -13 5 -21 -4 -9 -1 -13 6
-11 14 5 24 78 11 78 -4 0 -14 -9 -20 -20z"/>
<path d="M5356 4397 c3 -10 9 -15 12 -12 3 3 0 11 -7 18 -10 9 -11 8 -5 -6z"/>
<path d="M7640 4161 c0 -11 4 -22 9 -25 11 -7 20 14 13 32 -7 19 -22 14 -22
-7z"/>
<path d="M7640 4095 c-8 -9 -8 -15 -2 -15 18 0 42 12 42 21 0 14 -26 10 -40
-6z"/>
<path d="M5458 3833 c6 -2 18 -2 25 0 6 3 1 5 -13 5 -14 0 -19 -2 -12 -5z"/>
<path d="M5858 3683 c7 -3 16 -2 19 1 4 3 -2 6 -13 5 -11 0 -14 -3 -6 -6z"/>
<path d="M7048 3673 c6 -2 18 -2 25 0 6 3 1 5 -13 5 -14 0 -19 -2 -12 -5z"/>
<path d="M5920 3646 c0 -8 7 -16 15 -20 8 -3 15 -13 15 -22 0 -9 11 -25 25
-36 28 -22 33 -48 10 -48 -26 0 -16 -18 14 -25 16 -3 35 -13 42 -21 12 -15 39
-19 39 -6 0 4 -5 13 -12 20 -9 9 -6 12 14 12 26 0 38 16 38 51 0 22 -35 27
-44 7 -3 -7 -3 -3 -1 8 6 25 -12 35 -47 27 -12 -3 -20 -2 -16 2 4 4 -13 21
-38 36 -51 33 -54 34 -54 15z m80 -61 c0 -8 -4 -15 -10 -15 -5 0 -10 7 -10 15
0 8 5 15 10 15 6 0 10 -7 10 -15z m40 -19 c0 -3 -4 -8 -10 -11 -5 -3 -10 -1
-10 4 0 6 5 11 10 11 6 0 10 -2 10 -4z"/>
<path d="M6120 3590 c0 -5 9 -10 20 -10 11 0 20 5 20 10 0 6 -9 10 -20 10 -11
0 -20 -4 -20 -10z"/>
<path d="M7265 3560 c-3 -5 -1 -10 4 -10 6 0 11 5 11 10 0 6 -2 10 -4 10 -3 0
-8 -4 -11 -10z"/>
<path d="M5020 3533 c0 -46 48 -134 58 -105 4 14 32 16 32 2 0 -6 8 -5 20 2
26 17 25 34 -2 49 -13 7 -27 18 -31 25 -4 8 -17 14 -28 14 -16 0 -19 -5 -14
-20 4 -11 2 -20 -4 -20 -6 0 -11 16 -11 35 0 19 -4 35 -10 35 -5 0 -10 -8 -10
-17z"/>
<path d="M5360 3505 c0 -8 2 -15 4 -15 2 0 6 7 10 15 3 8 1 15 -4 15 -6 0 -10
-7 -10 -15z"/>
<path d="M6180 3505 c0 -11 -7 -14 -24 -9 -28 7 -45 -13 -19 -23 10 -4 24 -13
31 -20 7 -7 21 -13 30 -13 9 0 35 -3 57 -5 l40 -6 -44 18 c-46 19 -73 51 -32
38 24 -7 27 0 7 21 -19 19 -46 18 -46 -1z"/>
<path d="M5715 3490 c3 -5 10 -10 16 -10 5 0 9 5 9 10 0 6 -7 10 -16 10 -8 0
-12 -4 -9 -10z"/>
<path d="M5825 3491 c-3 -5 -1 -12 5 -16 5 -3 10 1 10 9 0 18 -6 21 -15 7z"/>
<path d="M5930 3480 c0 -12 24 -40 35 -40 4 0 5 10 3 22 -3 23 -38 39 -38 18z"/>
<path d="M5195 3440 c-3 -6 1 -7 9 -4 18 7 21 14 7 14 -6 0 -13 -4 -16 -10z"/>
<path d="M6006 3432 c6 -4 16 -17 23 -29 13 -25 51 -31 51 -9 0 8 3 16 8 19 4
2 2 3 -5 1 -6 -1 -19 4 -30 11 -10 8 -27 14 -38 15 -12 0 -15 -3 -9 -8z"/>
<path d="M6477 3414 c-8 -8 25 -44 40 -44 7 0 17 -9 23 -20 13 -24 30 -18 25
8 -2 9 -4 20 -4 25 -1 4 -9 7 -19 7 -10 0 -27 7 -38 15 -12 8 -24 12 -27 9z"/>
<path d="M5150 3400 c0 -5 5 -10 10 -10 6 0 10 5 10 10 0 6 -4 10 -10 10 -5 0
-10 -4 -10 -10z"/>
<path d="M5281 3394 c0 -11 3 -14 6 -6 3 7 2 16 -1 19 -3 4 -6 -2 -5 -13z"/>
<path d="M5407 3404 c-4 -4 -7 -17 -7 -28 1 -19 1 -20 11 -3 11 19 8 43 -4 31z"/>
<path d="M5085 3380 c-8 -13 -1 -24 14 -19 6 3 7 10 2 18 -6 10 -10 10 -16 1z"/>
<path d="M5309 3364 c-12 -14 -11 -16 5 -13 11 2 21 10 24 17 5 17 -13 15 -29
-4z"/>
<path d="M5360 3359 c0 -11 5 -17 10 -14 6 3 10 13 10 21 0 8 -4 14 -10 14 -5
0 -10 -9 -10 -21z"/>
<path d="M5195 3360 c3 -6 15 -10 26 -10 14 0 19 -7 19 -30 0 -24 -4 -30 -22
-31 -13 0 -18 -3 -11 -5 6 -3 30 0 52 6 58 15 57 45 -1 60 -24 6 -49 13 -56
15 -7 3 -10 0 -7 -5z"/>
<path d="M5680 3348 c0 -13 43 -47 52 -41 15 9 7 22 -22 37 -17 8 -30 10 -30
4z"/>
<path d="M5985 3350 c28 -12 57 -12 50 0 -3 6 -21 10 -38 9 -27 0 -29 -2 -12
-9z"/>
<path d="M4960 3291 c0 -6 -12 -11 -26 -11 -15 0 -23 -4 -18 -11 3 -6 15 -9
25 -6 12 3 25 -6 41 -29 13 -19 29 -34 36 -34 18 0 15 14 -8 35 -11 10 -20 24
-20 30 0 7 -7 18 -15 25 -10 9 -15 9 -15 1z"/>
<path d="M5360 3290 c0 -5 5 -10 11 -10 5 0 7 5 4 10 -3 6 -8 10 -11 10 -2 0
-4 -4 -4 -10z"/>
<path d="M5308 3283 c7 -3 16 -2 19 1 4 3 -2 6 -13 5 -11 0 -14 -3 -6 -6z"/>
<path d="M5743 3283 c9 -2 17 -11 17 -20 0 -13 3 -13 16 -2 14 12 14 14 -3 20
-10 4 -25 7 -33 7 -10 0 -9 -2 3 -5z"/>
<path d="M5280 3240 c0 -23 4 -24 31 -9 23 12 16 29 -12 29 -12 0 -19 -7 -19
-20z"/>
<path d="M5106 3221 c-4 -7 -5 -15 -2 -18 9 -9 19 4 14 18 -4 11 -6 11 -12 0z"/>
<path d="M5230 3215 c0 -8 5 -15 10 -15 6 0 10 7 10 15 0 8 -4 15 -10 15 -5 0
-10 -7 -10 -15z"/>
<path d="M5037 3193 c-4 -3 -7 -11 -7 -17 0 -6 5 -5 12 2 6 6 9 14 7 17 -3 3
-9 2 -12 -2z"/>
<path d="M5548 3188 c9 -9 15 -9 24 0 9 9 7 12 -12 12 -19 0 -21 -3 -12 -12z"/>
<path d="M5250 3169 c0 -5 5 -7 10 -4 6 3 10 8 10 11 0 2 -4 4 -10 4 -5 0 -10
-5 -10 -11z"/>
<path d="M5201 3134 c0 -11 3 -14 6 -6 3 7 2 16 -1 19 -3 4 -6 -2 -5 -13z"/>
<path d="M5628 3143 c7 -3 16 -2 19 1 4 3 -2 6 -13 5 -11 0 -14 -3 -6 -6z"/>
<path d="M5547 3134 c-3 -4 -2 -15 4 -25 8 -16 13 -17 29 -7 17 11 17 13 2 25
-19 14 -26 16 -35 7z"/>
<path d="M5122 3105 c25 -28 38 -32 38 -10 0 9 -12 20 -26 25 -36 14 -37 13
-12 -15z"/>
<path d="M5620 3105 c0 -8 5 -15 10 -15 6 0 10 7 10 15 0 8 -4 15 -10 15 -5 0
-10 -7 -10 -15z"/>
<path d="M5475 3080 c10 -11 23 -20 28 -20 6 0 2 9 -8 20 -10 11 -23 20 -28
20 -6 0 -2 -9 8 -20z"/>
<path d="M5615 3060 c3 -5 10 -10 16 -10 5 0 9 5 9 10 0 6 -7 10 -16 10 -8 0
-12 -4 -9 -10z"/>
<path d="M5585 3051 c-3 -5 -1 -12 5 -16 5 -3 10 1 10 9 0 18 -6 21 -15 7z"/>
<path d="M5520 3038 c0 -9 -3 -23 -6 -32 -5 -12 0 -16 20 -16 31 0 32 7 6 40
-15 19 -20 21 -20 8z"/>
<path d="M5623 2997 c-24 -11 -43 -24 -43 -28 0 -15 29 -17 56 -3 16 9 31 15
34 14 3 0 6 8 8 20 4 25 -2 24 -55 -3z"/>
<path d="M5680 2970 c0 -5 9 -10 21 -10 11 0 17 5 14 10 -3 6 -13 10 -21 10
-8 0 -14 -4 -14 -10z"/>
<path d="M5658 2925 c-8 -8 2 -45 12 -45 5 0 10 6 13 13 3 9 7 9 20 -2 15 -12
17 -11 17 3 0 9 -8 16 -18 16 -10 0 -23 5 -28 10 -6 6 -13 8 -16 5z"/>
<path d="M5520 2909 c0 -5 5 -7 10 -4 6 3 10 8 10 11 0 2 -4 4 -10 4 -5 0 -10
-5 -10 -11z"/>
<path d="M5745 2870 c3 -5 8 -10 11 -10 2 0 4 5 4 10 0 6 -5 10 -11 10 -5 0
-7 -4 -4 -10z"/>
<path d="M5686 2862 c-3 -6 -1 -14 5 -17 15 -10 25 3 12 16 -7 7 -13 7 -17 1z"/>
</g>
</svg>
